M48
; DRILL file KiCad 10.0.6 date 2026-09-21T21:34:22
; FORMAT={-:-/ absolute / metric / decimal}
; #@! TF.CreationDate,2026-09-21T21:34:22-03:00
; #@! TF.GenerationSoftware,Kicad,Pcbnew,10.0.6
; #@! TF.FileFunction,Plated,1,2,PTH
FMAT,2
METRIC
; #@! TA.AperFunction,Plated,PTH,ComponentDrill
T1C0.762
; #@! TA.AperFunction,Plated,PTH,ComponentDrill
T2C1.300
; #@! TA.AperFunction,Plated,PTH,ComponentDrill
T3C1.520
%
G90
G05
T1
X135.931Y-121.412
X135.951Y-79.552
X138.481Y-121.412
X138.501Y-79.552
X141.021Y-121.412
X141.041Y-79.552
X143.561Y-121.412
X143.581Y-79.552
X166.356Y-88.189
X166.366Y-111.049
X168.896Y-88.189
X168.906Y-111.049
X171.436Y-88.189
X171.446Y-111.049
X173.976Y-88.189
X173.986Y-111.049
X176.516Y-88.189
X176.526Y-111.049
X179.056Y-88.189
X179.066Y-111.049
X181.596Y-88.189
X181.606Y-111.049
X184.136Y-88.189
X184.146Y-111.049
X186.676Y-88.189
X186.686Y-111.049
X189.216Y-88.189
X189.226Y-111.049
X191.756Y-88.189
X191.766Y-111.049
X194.296Y-88.189
X194.306Y-111.049
X196.836Y-88.189
X196.846Y-111.049
T2
X194.818Y-123.551
X194.818Y-128.631
T3
X112.573Y-57.963
X112.573Y-63.043
X112.573Y-68.123
X112.573Y-73.203
X112.573Y-78.892
X112.573Y-83.972
X112.573Y-89.052
X112.573Y-94.132
X112.674Y-99.924
X112.674Y-105.004
X112.674Y-110.084
X112.674Y-115.164
X112.725Y-120.853
X112.725Y-125.933
X112.725Y-131.013
X112.725Y-136.093
X136.296Y-138.024
X141.376Y-138.024
X151.435Y-138.024
X156.515Y-138.024
X166.573Y-138.024
X171.653Y-138.024
M30
