%TF.GenerationSoftware,KiCad,Pcbnew,10.0.6*%
%TF.CreationDate,2026-09-21T21:34:33-03:00*%
%TF.ProjectId,water-quality-v1,77617465-722d-4717-9561-6c6974792d76,rev?*%
%TF.SameCoordinates,Original*%
%TF.FileFunction,Soldermask,Bot*%
%TF.FilePolarity,Negative*%
%FSLAX46Y46*%
G04 Gerber Fmt 4.6, Leading zero omitted, Abs format (unit mm)*
G04 Created by KiCad (PCBNEW 10.0.6) date 2026-09-21 21:34:33*
%MOMM*%
%LPD*%
G01*
G04 APERTURE LIST*
%ADD10C,2.200000*%
%ADD11C,1.524000*%
%ADD12R,3.000000X3.000000*%
%ADD13C,3.000000*%
%ADD14R,2.600000X2.600000*%
%ADD15C,2.600000*%
G04 APERTURE END LIST*
D10*
%TO.C,H3*%
X110617000Y-51358800D03*
%TD*%
D11*
%TO.C,U2*%
X143580800Y-79552000D03*
X141040800Y-79552000D03*
X138500800Y-79552000D03*
X135950800Y-79552000D03*
X135930800Y-121412000D03*
X138480800Y-121412000D03*
X141020800Y-121412000D03*
X143560800Y-121412000D03*
%TD*%
D12*
%TO.C,J7*%
X136296400Y-138023600D03*
D13*
X141376400Y-138023600D03*
%TD*%
D12*
%TO.C,J3*%
X112572800Y-78892400D03*
D13*
X112572800Y-83972400D03*
X112572800Y-89052400D03*
X112572800Y-94132400D03*
%TD*%
D12*
%TO.C,J2*%
X112572800Y-57962800D03*
D13*
X112572800Y-63042800D03*
X112572800Y-68122800D03*
X112572800Y-73202800D03*
%TD*%
D12*
%TO.C,J8*%
X112725200Y-120853200D03*
D13*
X112725200Y-125933200D03*
X112725200Y-131013200D03*
X112725200Y-136093200D03*
%TD*%
D14*
%TO.C,SW1*%
X194818200Y-128630600D03*
D15*
X194818200Y-123550600D03*
%TD*%
D12*
%TO.C,J6*%
X151434800Y-138023600D03*
D13*
X156514800Y-138023600D03*
%TD*%
D10*
%TO.C,H4*%
X110693200Y-142443200D03*
%TD*%
%TO.C,H2*%
X197815200Y-51358800D03*
%TD*%
D11*
%TO.C,U1*%
X191756000Y-88188700D03*
X168906000Y-111048700D03*
X189216000Y-88188700D03*
X171446000Y-111048700D03*
X191766000Y-111048700D03*
X194296000Y-88188700D03*
X196846000Y-111048700D03*
X181596000Y-88188700D03*
X184136000Y-88188700D03*
X179056000Y-88188700D03*
X186676000Y-88188700D03*
X179066000Y-111048700D03*
X166366000Y-111048700D03*
X173986000Y-111048700D03*
X176526000Y-111048700D03*
X196836000Y-88188700D03*
X186686000Y-111048700D03*
X173976000Y-88188700D03*
X176516000Y-88188700D03*
X166356000Y-88188700D03*
X168896000Y-88188700D03*
X189226000Y-111048700D03*
X194306000Y-111048700D03*
X184146000Y-111048700D03*
X181606000Y-111048700D03*
X171436000Y-88188700D03*
%TD*%
D12*
%TO.C,J1*%
X166573200Y-138023600D03*
D13*
X171653200Y-138023600D03*
%TD*%
D10*
%TO.C,H1*%
X197815200Y-142443200D03*
%TD*%
D12*
%TO.C,J4*%
X112674400Y-99923600D03*
D13*
X112674400Y-105003600D03*
X112674400Y-110083600D03*
X112674400Y-115163600D03*
%TD*%
M02*
