%TF.GenerationSoftware,KiCad,Pcbnew,10.0.6*%
%TF.CreationDate,2026-09-21T21:34:33-03:00*%
%TF.ProjectId,water-quality-v1,77617465-722d-4717-9561-6c6974792d76,rev?*%
%TF.SameCoordinates,Original*%
%TF.FileFunction,Copper,L2,Bot*%
%TF.FilePolarity,Positive*%
%FSLAX46Y46*%
G04 Gerber Fmt 4.6, Leading zero omitted, Abs format (unit mm)*
G04 Created by KiCad (PCBNEW 10.0.6) date 2026-09-21 21:34:33*
%MOMM*%
%LPD*%
G01*
G04 APERTURE LIST*
%TA.AperFunction,ComponentPad*%
%ADD10C,1.524000*%
%TD*%
%TA.AperFunction,ComponentPad*%
%ADD11R,3.000000X3.000000*%
%TD*%
%TA.AperFunction,ComponentPad*%
%ADD12C,3.000000*%
%TD*%
%TA.AperFunction,ComponentPad*%
%ADD13R,2.600000X2.600000*%
%TD*%
%TA.AperFunction,ComponentPad*%
%ADD14C,2.600000*%
%TD*%
G04 APERTURE END LIST*
D10*
%TO.P,U2,1,RO*%
%TO.N,/RO*%
X143580800Y-79552000D03*
%TO.P,U2,2,~{RE}*%
%TO.N,/RE_DE*%
X141040800Y-79552000D03*
%TO.P,U2,3,DE*%
X138500800Y-79552000D03*
%TO.P,U2,4,DI*%
%TO.N,/DI*%
X135950800Y-79552000D03*
%TO.P,U2,5,GND*%
%TO.N,GND*%
X135930800Y-121412000D03*
%TO.P,U2,6,A*%
%TO.N,Net-(J2-Pin_2)*%
X138480800Y-121412000D03*
%TO.P,U2,7,B*%
%TO.N,Net-(J2-Pin_3)*%
X141020800Y-121412000D03*
%TO.P,U2,8,VCC*%
%TO.N,/Vcc*%
X143560800Y-121412000D03*
%TD*%
D11*
%TO.P,J7,1,Pin_1*%
%TO.N,+12V*%
X136296400Y-138023600D03*
D12*
%TO.P,J7,2,Pin_2*%
%TO.N,GND*%
X141376400Y-138023600D03*
%TD*%
D11*
%TO.P,J3,1,Pin_1*%
%TO.N,GND*%
X112572800Y-78892400D03*
D12*
%TO.P,J3,2,Pin_2*%
%TO.N,Net-(J2-Pin_2)*%
X112572800Y-83972400D03*
%TO.P,J3,3,Pin_3*%
%TO.N,Net-(J2-Pin_3)*%
X112572800Y-89052400D03*
%TO.P,J3,4,Pin_4*%
%TO.N,+12V*%
X112572800Y-94132400D03*
%TD*%
D11*
%TO.P,J2,1,Pin_1*%
%TO.N,GND*%
X112572800Y-57962800D03*
D12*
%TO.P,J2,2,Pin_2*%
%TO.N,Net-(J2-Pin_2)*%
X112572800Y-63042800D03*
%TO.P,J2,3,Pin_3*%
%TO.N,Net-(J2-Pin_3)*%
X112572800Y-68122800D03*
%TO.P,J2,4,Pin_4*%
%TO.N,+12V*%
X112572800Y-73202800D03*
%TD*%
D11*
%TO.P,J8,1,Pin_1*%
%TO.N,GND*%
X112725200Y-120853200D03*
D12*
%TO.P,J8,2,Pin_2*%
%TO.N,Net-(J2-Pin_2)*%
X112725200Y-125933200D03*
%TO.P,J8,3,Pin_3*%
%TO.N,Net-(J2-Pin_3)*%
X112725200Y-131013200D03*
%TO.P,J8,4,Pin_4*%
%TO.N,+12V*%
X112725200Y-136093200D03*
%TD*%
D13*
%TO.P,SW1,1,A*%
%TO.N,+5V*%
X194818200Y-128630600D03*
D14*
%TO.P,SW1,2,B*%
%TO.N,/Vcc*%
X194818200Y-123550600D03*
%TD*%
D11*
%TO.P,J6,1,Pin_1*%
%TO.N,unconnected-(J6-Pin_1-Pad1)*%
X151434800Y-138023600D03*
D12*
%TO.P,J6,2,Pin_2*%
%TO.N,/RELAY*%
X156514800Y-138023600D03*
%TD*%
D10*
%TO.P,U1,0,IO0*%
%TO.N,/RELAY*%
X191756000Y-88188700D03*
%TO.P,U1,1,TXD*%
%TO.N,unconnected-(U1-TXD-Pad1)*%
X168906000Y-111048700D03*
%TO.P,U1,2,IO2*%
%TO.N,unconnected-(U1-IO2-Pad2)*%
X189216000Y-88188700D03*
%TO.P,U1,3,RXD*%
%TO.N,/RE_DE*%
X171446000Y-111048700D03*
%TO.P,U1,3.3V,3.3V*%
%TO.N,unconnected-(U1-Pad3.3V)*%
X191766000Y-111048700D03*
%TO.P,U1,4,IO4*%
%TO.N,/DI*%
X194296000Y-88188700D03*
%TO.P,U1,5V,5V*%
%TO.N,/Vcc*%
X196846000Y-111048700D03*
%TO.P,U1,12,IO12*%
%TO.N,/RO*%
X181596000Y-88188700D03*
%TO.P,U1,13,IO13*%
%TO.N,unconnected-(U1-IO13-Pad13)*%
X184136000Y-88188700D03*
%TO.P,U1,14,IO14*%
%TO.N,unconnected-(U1-IO14-Pad14)*%
X179056000Y-88188700D03*
%TO.P,U1,15,IO15*%
%TO.N,unconnected-(U1-IO15-Pad15)*%
X186676000Y-88188700D03*
%TO.P,U1,19,IO19*%
%TO.N,unconnected-(U1-IO19-Pad19)*%
X179066000Y-111048700D03*
%TO.P,U1,21,IO21*%
%TO.N,unconnected-(U1-IO21-Pad21)*%
X166366000Y-111048700D03*
%TO.P,U1,22,IO22*%
%TO.N,unconnected-(U1-IO22-Pad22)*%
X173986000Y-111048700D03*
%TO.P,U1,23,IO23*%
%TO.N,unconnected-(U1-IO23-Pad23)*%
X176526000Y-111048700D03*
%TO.P,U1,25,IO25*%
%TO.N,unconnected-(U1-IO25-Pad25)*%
X196836000Y-88188700D03*
%TO.P,U1,26,IO26*%
%TO.N,unconnected-(U1-IO26-Pad26)*%
X186686000Y-111048700D03*
%TO.P,U1,34,IO34*%
%TO.N,unconnected-(U1-IO34-Pad34)*%
X173976000Y-88188700D03*
%TO.P,U1,35,IO35*%
%TO.N,unconnected-(U1-IO35-Pad35)*%
X176516000Y-88188700D03*
%TO.P,U1,36,S_VP*%
%TO.N,unconnected-(U1-S_VP-Pad36)*%
X166356000Y-88188700D03*
%TO.P,U1,39,S_VN*%
%TO.N,unconnected-(U1-S_VN-Pad39)*%
X168896000Y-88188700D03*
%TO.P,U1,GND,GND*%
%TO.N,GND*%
X189226000Y-111048700D03*
X194306000Y-111048700D03*
%TO.P,U1,LoRa1,LoRa1*%
%TO.N,unconnected-(U1-PadLoRa1)*%
X184146000Y-111048700D03*
%TO.P,U1,LoRa2,LoRa2*%
%TO.N,unconnected-(U1-PadLoRa2)*%
X181606000Y-111048700D03*
%TO.P,U1,RST,RST*%
%TO.N,unconnected-(U1-PadRST)*%
X171436000Y-88188700D03*
%TD*%
D11*
%TO.P,J1,1,Pin_1*%
%TO.N,+5V*%
X166573200Y-138023600D03*
D12*
%TO.P,J1,2,Pin_2*%
%TO.N,GND*%
X171653200Y-138023600D03*
%TD*%
D11*
%TO.P,J4,1,Pin_1*%
%TO.N,GND*%
X112674400Y-99923600D03*
D12*
%TO.P,J4,2,Pin_2*%
%TO.N,Net-(J2-Pin_2)*%
X112674400Y-105003600D03*
%TO.P,J4,3,Pin_3*%
%TO.N,Net-(J2-Pin_3)*%
X112674400Y-110083600D03*
%TO.P,J4,4,Pin_4*%
%TO.N,+12V*%
X112674400Y-115163600D03*
%TD*%
%TA.AperFunction,Conductor*%
%TO.N,GND*%
G36*
X203346142Y-47517772D02*
G01*
X203391978Y-47570506D01*
X203403263Y-47622127D01*
X203453936Y-146230672D01*
X203434286Y-146297722D01*
X203381505Y-146343504D01*
X203329872Y-146354736D01*
X104721008Y-146304063D01*
X104653979Y-146284344D01*
X104608251Y-146231516D01*
X104597072Y-146180191D01*
X104593114Y-142336913D01*
X109342700Y-142336913D01*
X109342700Y-142549486D01*
X109375953Y-142759439D01*
X109441644Y-142961614D01*
X109538151Y-143151020D01*
X109663090Y-143322986D01*
X109813413Y-143473309D01*
X109985379Y-143598248D01*
X109985381Y-143598249D01*
X109985384Y-143598251D01*
X110174788Y-143694757D01*
X110376957Y-143760446D01*
X110586913Y-143793700D01*
X110586914Y-143793700D01*
X110799486Y-143793700D01*
X110799487Y-143793700D01*
X111009443Y-143760446D01*
X111211612Y-143694757D01*
X111401016Y-143598251D01*
X111422989Y-143582286D01*
X111572986Y-143473309D01*
X111572988Y-143473306D01*
X111572992Y-143473304D01*
X111723304Y-143322992D01*
X111723306Y-143322988D01*
X111723309Y-143322986D01*
X111848248Y-143151020D01*
X111848247Y-143151020D01*
X111848251Y-143151016D01*
X111944757Y-142961612D01*
X112010446Y-142759443D01*
X112043700Y-142549487D01*
X112043700Y-142336913D01*
X196464700Y-142336913D01*
X196464700Y-142549486D01*
X196497953Y-142759439D01*
X196563644Y-142961614D01*
X196660151Y-143151020D01*
X196785090Y-143322986D01*
X196935413Y-143473309D01*
X197107379Y-143598248D01*
X197107381Y-143598249D01*
X197107384Y-143598251D01*
X197296788Y-143694757D01*
X197498957Y-143760446D01*
X197708913Y-143793700D01*
X197708914Y-143793700D01*
X197921486Y-143793700D01*
X197921487Y-143793700D01*
X198131443Y-143760446D01*
X198333612Y-143694757D01*
X198523016Y-143598251D01*
X198544989Y-143582286D01*
X198694986Y-143473309D01*
X198694988Y-143473306D01*
X198694992Y-143473304D01*
X198845304Y-143322992D01*
X198845306Y-143322988D01*
X198845309Y-143322986D01*
X198970248Y-143151020D01*
X198970247Y-143151020D01*
X198970251Y-143151016D01*
X199066757Y-142961612D01*
X199132446Y-142759443D01*
X199165700Y-142549487D01*
X199165700Y-142336913D01*
X199132446Y-142126957D01*
X199066757Y-141924788D01*
X198970251Y-141735384D01*
X198970249Y-141735381D01*
X198970248Y-141735379D01*
X198845309Y-141563413D01*
X198694986Y-141413090D01*
X198523020Y-141288151D01*
X198333614Y-141191644D01*
X198333613Y-141191643D01*
X198333612Y-141191643D01*
X198131443Y-141125954D01*
X198131441Y-141125953D01*
X198131440Y-141125953D01*
X197970157Y-141100408D01*
X197921487Y-141092700D01*
X197708913Y-141092700D01*
X197660242Y-141100408D01*
X197498960Y-141125953D01*
X197296785Y-141191644D01*
X197107379Y-141288151D01*
X196935413Y-141413090D01*
X196785090Y-141563413D01*
X196660151Y-141735379D01*
X196563644Y-141924785D01*
X196497953Y-142126960D01*
X196464700Y-142336913D01*
X112043700Y-142336913D01*
X112010446Y-142126957D01*
X111944757Y-141924788D01*
X111848251Y-141735384D01*
X111848249Y-141735381D01*
X111848248Y-141735379D01*
X111723309Y-141563413D01*
X111572986Y-141413090D01*
X111401020Y-141288151D01*
X111211614Y-141191644D01*
X111211613Y-141191643D01*
X111211612Y-141191643D01*
X111009443Y-141125954D01*
X111009441Y-141125953D01*
X111009440Y-141125953D01*
X110848157Y-141100408D01*
X110799487Y-141092700D01*
X110586913Y-141092700D01*
X110538242Y-141100408D01*
X110376960Y-141125953D01*
X110174785Y-141191644D01*
X109985379Y-141288151D01*
X109813413Y-141413090D01*
X109663090Y-141563413D01*
X109538151Y-141735379D01*
X109441644Y-141924785D01*
X109375953Y-142126960D01*
X109342700Y-142336913D01*
X104593114Y-142336913D01*
X104586549Y-135962072D01*
X110724700Y-135962072D01*
X110724700Y-136224327D01*
X110749951Y-136416116D01*
X110758930Y-136484316D01*
X110817191Y-136701749D01*
X110826802Y-136737618D01*
X110826805Y-136737628D01*
X110927153Y-136979890D01*
X110927158Y-136979900D01*
X111058275Y-137207003D01*
X111217918Y-137415051D01*
X111217926Y-137415060D01*
X111403340Y-137600474D01*
X111403348Y-137600481D01*
X111611396Y-137760124D01*
X111838499Y-137891241D01*
X111838509Y-137891246D01*
X112080771Y-137991594D01*
X112080781Y-137991598D01*
X112334084Y-138059470D01*
X112594080Y-138093700D01*
X112594087Y-138093700D01*
X112856313Y-138093700D01*
X112856320Y-138093700D01*
X113116316Y-138059470D01*
X113369619Y-137991598D01*
X113546540Y-137918314D01*
X113611890Y-137891246D01*
X113611891Y-137891245D01*
X113611897Y-137891243D01*
X113839003Y-137760124D01*
X114047051Y-137600482D01*
X114047055Y-137600477D01*
X114047060Y-137600474D01*
X114232474Y-137415060D01*
X114232477Y-137415055D01*
X114232482Y-137415051D01*
X114392124Y-137207003D01*
X114523243Y-136979897D01*
X114623598Y-136737619D01*
X114691470Y-136484316D01*
X114692600Y-136475735D01*
X134295900Y-136475735D01*
X134295900Y-139571470D01*
X134295901Y-139571476D01*
X134302308Y-139631083D01*
X134352602Y-139765928D01*
X134352606Y-139765935D01*
X134438852Y-139881144D01*
X134438855Y-139881147D01*
X134554064Y-139967393D01*
X134554071Y-139967397D01*
X134688917Y-140017691D01*
X134688916Y-140017691D01*
X134695844Y-140018435D01*
X134748527Y-140024100D01*
X137844272Y-140024099D01*
X137903883Y-140017691D01*
X138038731Y-139967396D01*
X138153946Y-139881146D01*
X138240196Y-139765931D01*
X138290491Y-139631083D01*
X138296900Y-139571473D01*
X138296899Y-137892505D01*
X139376400Y-137892505D01*
X139376400Y-138154694D01*
X139410620Y-138414609D01*
X139410622Y-138414620D01*
X139478475Y-138667855D01*
X139578804Y-138910071D01*
X139578809Y-138910082D01*
X139709888Y-139137116D01*
X139709894Y-139137124D01*
X139796480Y-139249965D01*
X140691167Y-138355277D01*
X140702897Y-138383595D01*
X140786070Y-138508072D01*
X140891928Y-138613930D01*
X141016405Y-138697103D01*
X141044720Y-138708831D01*
X140150033Y-139603517D01*
X140150033Y-139603518D01*
X140262875Y-139690105D01*
X140262883Y-139690111D01*
X140489917Y-139821190D01*
X140489928Y-139821195D01*
X140732144Y-139921524D01*
X140985379Y-139989377D01*
X140985390Y-139989379D01*
X141245305Y-140023599D01*
X141245320Y-140023600D01*
X141507480Y-140023600D01*
X141507494Y-140023599D01*
X141767409Y-139989379D01*
X141767420Y-139989377D01*
X142020655Y-139921524D01*
X142262871Y-139821195D01*
X142262882Y-139821190D01*
X142489916Y-139690111D01*
X142489934Y-139690099D01*
X142602765Y-139603519D01*
X142602765Y-139603517D01*
X141708079Y-138708831D01*
X141736395Y-138697103D01*
X141860872Y-138613930D01*
X141966730Y-138508072D01*
X142049903Y-138383595D01*
X142061631Y-138355279D01*
X142956317Y-139249965D01*
X142956319Y-139249965D01*
X143042899Y-139137134D01*
X143042911Y-139137116D01*
X143173990Y-138910082D01*
X143173995Y-138910071D01*
X143274324Y-138667855D01*
X143342177Y-138414620D01*
X143342179Y-138414609D01*
X143376399Y-138154694D01*
X143376400Y-138154680D01*
X143376400Y-137892519D01*
X143376399Y-137892505D01*
X143342179Y-137632590D01*
X143342177Y-137632579D01*
X143274324Y-137379344D01*
X143173995Y-137137128D01*
X143173990Y-137137117D01*
X143042911Y-136910083D01*
X143042905Y-136910075D01*
X142956318Y-136797233D01*
X142956317Y-136797233D01*
X142061631Y-137691920D01*
X142049903Y-137663605D01*
X141966730Y-137539128D01*
X141860872Y-137433270D01*
X141736395Y-137350097D01*
X141708077Y-137338367D01*
X142570710Y-136475735D01*
X149434300Y-136475735D01*
X149434300Y-139571470D01*
X149434301Y-139571476D01*
X149440708Y-139631083D01*
X149491002Y-139765928D01*
X149491006Y-139765935D01*
X149577252Y-139881144D01*
X149577255Y-139881147D01*
X149692464Y-139967393D01*
X149692471Y-139967397D01*
X149827317Y-140017691D01*
X149827316Y-140017691D01*
X149834244Y-140018435D01*
X149886927Y-140024100D01*
X152982672Y-140024099D01*
X153042283Y-140017691D01*
X153177131Y-139967396D01*
X153292346Y-139881146D01*
X153378596Y-139765931D01*
X153428891Y-139631083D01*
X153435300Y-139571473D01*
X153435299Y-137892472D01*
X154514300Y-137892472D01*
X154514300Y-138154727D01*
X154526223Y-138245284D01*
X154548530Y-138414716D01*
X154573545Y-138508072D01*
X154616402Y-138668018D01*
X154616405Y-138668028D01*
X154716753Y-138910290D01*
X154716758Y-138910300D01*
X154847875Y-139137403D01*
X155007518Y-139345451D01*
X155007526Y-139345460D01*
X155192940Y-139530874D01*
X155192948Y-139530881D01*
X155400996Y-139690524D01*
X155628099Y-139821641D01*
X155628109Y-139821646D01*
X155870371Y-139921994D01*
X155870381Y-139921998D01*
X156123684Y-139989870D01*
X156371988Y-140022560D01*
X156383664Y-140024098D01*
X156383680Y-140024100D01*
X156383687Y-140024100D01*
X156645913Y-140024100D01*
X156645920Y-140024100D01*
X156905916Y-139989870D01*
X157159219Y-139921998D01*
X157401497Y-139821643D01*
X157628603Y-139690524D01*
X157836651Y-139530882D01*
X157836655Y-139530877D01*
X157836660Y-139530874D01*
X158022074Y-139345460D01*
X158022077Y-139345455D01*
X158022082Y-139345451D01*
X158181724Y-139137403D01*
X158312843Y-138910297D01*
X158413198Y-138668019D01*
X158481070Y-138414716D01*
X158515300Y-138154720D01*
X158515300Y-137892480D01*
X158481070Y-137632484D01*
X158413198Y-137379181D01*
X158365323Y-137263600D01*
X158312846Y-137136909D01*
X158312841Y-137136899D01*
X158181724Y-136909796D01*
X158022081Y-136701748D01*
X158022074Y-136701740D01*
X157836660Y-136516326D01*
X157836651Y-136516318D01*
X157783763Y-136475735D01*
X164572700Y-136475735D01*
X164572700Y-139571470D01*
X164572701Y-139571476D01*
X164579108Y-139631083D01*
X164629402Y-139765928D01*
X164629406Y-139765935D01*
X164715652Y-139881144D01*
X164715655Y-139881147D01*
X164830864Y-139967393D01*
X164830871Y-139967397D01*
X164965717Y-140017691D01*
X164965716Y-140017691D01*
X164972644Y-140018435D01*
X165025327Y-140024100D01*
X168121072Y-140024099D01*
X168180683Y-140017691D01*
X168315531Y-139967396D01*
X168430746Y-139881146D01*
X168516996Y-139765931D01*
X168567291Y-139631083D01*
X168573700Y-139571473D01*
X168573699Y-137892505D01*
X169653200Y-137892505D01*
X169653200Y-138154694D01*
X169687420Y-138414609D01*
X169687422Y-138414620D01*
X169755275Y-138667855D01*
X169855604Y-138910071D01*
X169855609Y-138910082D01*
X169986688Y-139137116D01*
X169986694Y-139137124D01*
X170073280Y-139249965D01*
X170967967Y-138355277D01*
X170979697Y-138383595D01*
X171062870Y-138508072D01*
X171168728Y-138613930D01*
X171293205Y-138697103D01*
X171321520Y-138708831D01*
X170426833Y-139603517D01*
X170426833Y-139603518D01*
X170539675Y-139690105D01*
X170539683Y-139690111D01*
X170766717Y-139821190D01*
X170766728Y-139821195D01*
X171008944Y-139921524D01*
X171262179Y-139989377D01*
X171262190Y-139989379D01*
X171522105Y-140023599D01*
X171522120Y-140023600D01*
X171784280Y-140023600D01*
X171784294Y-140023599D01*
X172044209Y-139989379D01*
X172044220Y-139989377D01*
X172297455Y-139921524D01*
X172539671Y-139821195D01*
X172539682Y-139821190D01*
X172766716Y-139690111D01*
X172766734Y-139690099D01*
X172879565Y-139603519D01*
X172879565Y-139603517D01*
X171984879Y-138708831D01*
X172013195Y-138697103D01*
X172137672Y-138613930D01*
X172243530Y-138508072D01*
X172326703Y-138383595D01*
X172338431Y-138355279D01*
X173233117Y-139249965D01*
X173233119Y-139249965D01*
X173319699Y-139137134D01*
X173319711Y-139137116D01*
X173450790Y-138910082D01*
X173450795Y-138910071D01*
X173551124Y-138667855D01*
X173618977Y-138414620D01*
X173618979Y-138414609D01*
X173653199Y-138154694D01*
X173653200Y-138154680D01*
X173653200Y-137892519D01*
X173653199Y-137892505D01*
X173618979Y-137632590D01*
X173618977Y-137632579D01*
X173551124Y-137379344D01*
X173450795Y-137137128D01*
X173450790Y-137137117D01*
X173319711Y-136910083D01*
X173319705Y-136910075D01*
X173233118Y-136797233D01*
X173233117Y-136797233D01*
X172338431Y-137691920D01*
X172326703Y-137663605D01*
X172243530Y-137539128D01*
X172137672Y-137433270D01*
X172013195Y-137350097D01*
X171984877Y-137338367D01*
X172879565Y-136443680D01*
X172766724Y-136357094D01*
X172766716Y-136357088D01*
X172539682Y-136226009D01*
X172539671Y-136226004D01*
X172297455Y-136125675D01*
X172044220Y-136057822D01*
X172044209Y-136057820D01*
X171784294Y-136023600D01*
X171522105Y-136023600D01*
X171262190Y-136057820D01*
X171262179Y-136057822D01*
X171008944Y-136125675D01*
X170766728Y-136226004D01*
X170766717Y-136226009D01*
X170539671Y-136357096D01*
X170426833Y-136443679D01*
X170426833Y-136443680D01*
X171321521Y-137338368D01*
X171293205Y-137350097D01*
X171168728Y-137433270D01*
X171062870Y-137539128D01*
X170979697Y-137663605D01*
X170967968Y-137691921D01*
X170073280Y-136797233D01*
X170073279Y-136797233D01*
X169986696Y-136910071D01*
X169855609Y-137137117D01*
X169855604Y-137137128D01*
X169755275Y-137379344D01*
X169687422Y-137632579D01*
X169687420Y-137632590D01*
X169653200Y-137892505D01*
X168573699Y-137892505D01*
X168573699Y-136475728D01*
X168567291Y-136416117D01*
X168516996Y-136281269D01*
X168516995Y-136281268D01*
X168516993Y-136281264D01*
X168430747Y-136166055D01*
X168430744Y-136166052D01*
X168315535Y-136079806D01*
X168315528Y-136079802D01*
X168180682Y-136029508D01*
X168180683Y-136029508D01*
X168121083Y-136023101D01*
X168121081Y-136023100D01*
X168121073Y-136023100D01*
X168121064Y-136023100D01*
X165025329Y-136023100D01*
X165025323Y-136023101D01*
X164965716Y-136029508D01*
X164830871Y-136079802D01*
X164830864Y-136079806D01*
X164715655Y-136166052D01*
X164715652Y-136166055D01*
X164629406Y-136281264D01*
X164629402Y-136281271D01*
X164579108Y-136416117D01*
X164574797Y-136456220D01*
X164572701Y-136475723D01*
X164572700Y-136475735D01*
X157783763Y-136475735D01*
X157628603Y-136356675D01*
X157401500Y-136225558D01*
X157401490Y-136225553D01*
X157159228Y-136125205D01*
X157159221Y-136125203D01*
X157159219Y-136125202D01*
X156905916Y-136057330D01*
X156848139Y-136049723D01*
X156645927Y-136023100D01*
X156645920Y-136023100D01*
X156383680Y-136023100D01*
X156383672Y-136023100D01*
X156152572Y-136053526D01*
X156123684Y-136057330D01*
X155870381Y-136125202D01*
X155870371Y-136125205D01*
X155628109Y-136225553D01*
X155628099Y-136225558D01*
X155400996Y-136356675D01*
X155192948Y-136516318D01*
X155007518Y-136701748D01*
X154847875Y-136909796D01*
X154716758Y-137136899D01*
X154716753Y-137136909D01*
X154616405Y-137379171D01*
X154616402Y-137379181D01*
X154548530Y-137632484D01*
X154548516Y-137632590D01*
X154514300Y-137892472D01*
X153435299Y-137892472D01*
X153435299Y-136475728D01*
X153428891Y-136416117D01*
X153378596Y-136281269D01*
X153378595Y-136281268D01*
X153378593Y-136281264D01*
X153292347Y-136166055D01*
X153292344Y-136166052D01*
X153177135Y-136079806D01*
X153177128Y-136079802D01*
X153042282Y-136029508D01*
X153042283Y-136029508D01*
X152982683Y-136023101D01*
X152982681Y-136023100D01*
X152982673Y-136023100D01*
X152982664Y-136023100D01*
X149886929Y-136023100D01*
X149886923Y-136023101D01*
X149827316Y-136029508D01*
X149692471Y-136079802D01*
X149692464Y-136079806D01*
X149577255Y-136166052D01*
X149577252Y-136166055D01*
X149491006Y-136281264D01*
X149491002Y-136281271D01*
X149440708Y-136416117D01*
X149436397Y-136456220D01*
X149434301Y-136475723D01*
X149434300Y-136475735D01*
X142570710Y-136475735D01*
X142602765Y-136443680D01*
X142489924Y-136357094D01*
X142489916Y-136357088D01*
X142262882Y-136226009D01*
X142262871Y-136226004D01*
X142020655Y-136125675D01*
X141767420Y-136057822D01*
X141767409Y-136057820D01*
X141507494Y-136023600D01*
X141245305Y-136023600D01*
X140985390Y-136057820D01*
X140985379Y-136057822D01*
X140732144Y-136125675D01*
X140489928Y-136226004D01*
X140489917Y-136226009D01*
X140262871Y-136357096D01*
X140150033Y-136443679D01*
X140150033Y-136443680D01*
X141044721Y-137338368D01*
X141016405Y-137350097D01*
X140891928Y-137433270D01*
X140786070Y-137539128D01*
X140702897Y-137663605D01*
X140691168Y-137691921D01*
X139796480Y-136797233D01*
X139796479Y-136797233D01*
X139709896Y-136910071D01*
X139578809Y-137137117D01*
X139578804Y-137137128D01*
X139478475Y-137379344D01*
X139410622Y-137632579D01*
X139410620Y-137632590D01*
X139376400Y-137892505D01*
X138296899Y-137892505D01*
X138296899Y-136475728D01*
X138290491Y-136416117D01*
X138240196Y-136281269D01*
X138240195Y-136281268D01*
X138240193Y-136281264D01*
X138153947Y-136166055D01*
X138153944Y-136166052D01*
X138038735Y-136079806D01*
X138038728Y-136079802D01*
X137903882Y-136029508D01*
X137903883Y-136029508D01*
X137844283Y-136023101D01*
X137844281Y-136023100D01*
X137844273Y-136023100D01*
X137844264Y-136023100D01*
X134748529Y-136023100D01*
X134748523Y-136023101D01*
X134688916Y-136029508D01*
X134554071Y-136079802D01*
X134554064Y-136079806D01*
X134438855Y-136166052D01*
X134438852Y-136166055D01*
X134352606Y-136281264D01*
X134352602Y-136281271D01*
X134302308Y-136416117D01*
X134297997Y-136456220D01*
X134295901Y-136475723D01*
X134295900Y-136475735D01*
X114692600Y-136475735D01*
X114725700Y-136224320D01*
X114725700Y-135962080D01*
X114691470Y-135702084D01*
X114623598Y-135448781D01*
X114623594Y-135448771D01*
X114523246Y-135206509D01*
X114523241Y-135206499D01*
X114392124Y-134979396D01*
X114232481Y-134771348D01*
X114232474Y-134771340D01*
X114047060Y-134585926D01*
X114047051Y-134585918D01*
X113839003Y-134426275D01*
X113611900Y-134295158D01*
X113611890Y-134295153D01*
X113369628Y-134194805D01*
X113369621Y-134194803D01*
X113369619Y-134194802D01*
X113116316Y-134126930D01*
X113058539Y-134119323D01*
X112856327Y-134092700D01*
X112856320Y-134092700D01*
X112594080Y-134092700D01*
X112594072Y-134092700D01*
X112362972Y-134123126D01*
X112334084Y-134126930D01*
X112080781Y-134194802D01*
X112080771Y-134194805D01*
X111838509Y-134295153D01*
X111838499Y-134295158D01*
X111611396Y-134426275D01*
X111403348Y-134585918D01*
X111217918Y-134771348D01*
X111058275Y-134979396D01*
X110927158Y-135206499D01*
X110927153Y-135206509D01*
X110826805Y-135448771D01*
X110826802Y-135448781D01*
X110758930Y-135702085D01*
X110724700Y-135962072D01*
X104586549Y-135962072D01*
X104581317Y-130882072D01*
X110724700Y-130882072D01*
X110724700Y-131144327D01*
X110751323Y-131346539D01*
X110758930Y-131404316D01*
X110826802Y-131657618D01*
X110826805Y-131657628D01*
X110927153Y-131899890D01*
X110927158Y-131899900D01*
X111058275Y-132127003D01*
X111217918Y-132335051D01*
X111217926Y-132335060D01*
X111403340Y-132520474D01*
X111403348Y-132520481D01*
X111611396Y-132680124D01*
X111838499Y-132811241D01*
X111838509Y-132811246D01*
X112080771Y-132911594D01*
X112080781Y-132911598D01*
X112334084Y-132979470D01*
X112594080Y-133013700D01*
X112594087Y-133013700D01*
X112856313Y-133013700D01*
X112856320Y-133013700D01*
X113116316Y-132979470D01*
X113369619Y-132911598D01*
X113611897Y-132811243D01*
X113839003Y-132680124D01*
X114047051Y-132520482D01*
X114047055Y-132520477D01*
X114047060Y-132520474D01*
X114232474Y-132335060D01*
X114232477Y-132335055D01*
X114232482Y-132335051D01*
X114392124Y-132127003D01*
X114523243Y-131899897D01*
X114623598Y-131657619D01*
X114691470Y-131404316D01*
X114725700Y-131144320D01*
X114725700Y-130882080D01*
X114691470Y-130622084D01*
X114623598Y-130368781D01*
X114623594Y-130368771D01*
X114523246Y-130126509D01*
X114523241Y-130126499D01*
X114392124Y-129899396D01*
X114232481Y-129691348D01*
X114232474Y-129691340D01*
X114047060Y-129505926D01*
X114047051Y-129505918D01*
X113839003Y-129346275D01*
X113611900Y-129215158D01*
X113611890Y-129215153D01*
X113369628Y-129114805D01*
X113369621Y-129114803D01*
X113369619Y-129114802D01*
X113116316Y-129046930D01*
X113058539Y-129039323D01*
X112856327Y-129012700D01*
X112856320Y-129012700D01*
X112594080Y-129012700D01*
X112594072Y-129012700D01*
X112362972Y-129043126D01*
X112334084Y-129046930D01*
X112080781Y-129114802D01*
X112080771Y-129114805D01*
X111838509Y-129215153D01*
X111838499Y-129215158D01*
X111611396Y-129346275D01*
X111403348Y-129505918D01*
X111217918Y-129691348D01*
X111058275Y-129899396D01*
X110927158Y-130126499D01*
X110927153Y-130126509D01*
X110826805Y-130368771D01*
X110826802Y-130368781D01*
X110758930Y-130622085D01*
X110724700Y-130882072D01*
X104581317Y-130882072D01*
X104577549Y-127223116D01*
X104576086Y-125802072D01*
X110724700Y-125802072D01*
X110724700Y-126064327D01*
X110751323Y-126266539D01*
X110758930Y-126324316D01*
X110826802Y-126577618D01*
X110826805Y-126577628D01*
X110927153Y-126819890D01*
X110927158Y-126819900D01*
X111058275Y-127047003D01*
X111217918Y-127255051D01*
X111217926Y-127255060D01*
X111403340Y-127440474D01*
X111403348Y-127440481D01*
X111611396Y-127600124D01*
X111838499Y-127731241D01*
X111838509Y-127731246D01*
X112080771Y-127831594D01*
X112080781Y-127831598D01*
X112334084Y-127899470D01*
X112594080Y-127933700D01*
X112594087Y-127933700D01*
X112856313Y-127933700D01*
X112856320Y-127933700D01*
X113116316Y-127899470D01*
X113369619Y-127831598D01*
X113611897Y-127731243D01*
X113839003Y-127600124D01*
X114047051Y-127440482D01*
X114047055Y-127440477D01*
X114047060Y-127440474D01*
X114204798Y-127282735D01*
X193017700Y-127282735D01*
X193017700Y-129978470D01*
X193017701Y-129978476D01*
X193024108Y-130038083D01*
X193074402Y-130172928D01*
X193074406Y-130172935D01*
X193160652Y-130288144D01*
X193160655Y-130288147D01*
X193275864Y-130374393D01*
X193275871Y-130374397D01*
X193410717Y-130424691D01*
X193410716Y-130424691D01*
X193417644Y-130425435D01*
X193470327Y-130431100D01*
X196166072Y-130431099D01*
X196225683Y-130424691D01*
X196360531Y-130374396D01*
X196475746Y-130288146D01*
X196561996Y-130172931D01*
X196612291Y-130038083D01*
X196618700Y-129978473D01*
X196618699Y-127282728D01*
X196612291Y-127223117D01*
X196561996Y-127088269D01*
X196561995Y-127088268D01*
X196561993Y-127088264D01*
X196475747Y-126973055D01*
X196475744Y-126973052D01*
X196360535Y-126886806D01*
X196360528Y-126886802D01*
X196225682Y-126836508D01*
X196225683Y-126836508D01*
X196166083Y-126830101D01*
X196166081Y-126830100D01*
X196166073Y-126830100D01*
X196166064Y-126830100D01*
X193470329Y-126830100D01*
X193470323Y-126830101D01*
X193410716Y-126836508D01*
X193275871Y-126886802D01*
X193275864Y-126886806D01*
X193160655Y-126973052D01*
X193160652Y-126973055D01*
X193074406Y-127088264D01*
X193074402Y-127088271D01*
X193024108Y-127223117D01*
X193017701Y-127282716D01*
X193017701Y-127282723D01*
X193017700Y-127282735D01*
X114204798Y-127282735D01*
X114232473Y-127255060D01*
X114232482Y-127255051D01*
X114392124Y-127047003D01*
X114523243Y-126819897D01*
X114623598Y-126577619D01*
X114691470Y-126324316D01*
X114725700Y-126064320D01*
X114725700Y-125802080D01*
X114691470Y-125542084D01*
X114623598Y-125288781D01*
X114611347Y-125259205D01*
X114523246Y-125046509D01*
X114523241Y-125046499D01*
X114392124Y-124819396D01*
X114232481Y-124611348D01*
X114232474Y-124611340D01*
X114047060Y-124425926D01*
X114047051Y-124425918D01*
X113839003Y-124266275D01*
X113611900Y-124135158D01*
X113611890Y-124135153D01*
X113369628Y-124034805D01*
X113369621Y-124034803D01*
X113369619Y-124034802D01*
X113116316Y-123966930D01*
X113058539Y-123959323D01*
X112856327Y-123932700D01*
X112856320Y-123932700D01*
X112594080Y-123932700D01*
X112594072Y-123932700D01*
X112362972Y-123963126D01*
X112334084Y-123966930D01*
X112080781Y-124034802D01*
X112080771Y-124034805D01*
X111838509Y-124135153D01*
X111838499Y-124135158D01*
X111611396Y-124266275D01*
X111403348Y-124425918D01*
X111217918Y-124611348D01*
X111058275Y-124819396D01*
X110927158Y-125046499D01*
X110927153Y-125046509D01*
X110826805Y-125288771D01*
X110826802Y-125288781D01*
X110758930Y-125542085D01*
X110724700Y-125802072D01*
X104576086Y-125802072D01*
X104576082Y-125798149D01*
X104573646Y-123432589D01*
X193017700Y-123432589D01*
X193017700Y-123668611D01*
X193048507Y-123902614D01*
X193083927Y-124034802D01*
X193109594Y-124130593D01*
X193199914Y-124348645D01*
X193199919Y-124348656D01*
X193244527Y-124425918D01*
X193317927Y-124553050D01*
X193317929Y-124553053D01*
X193317930Y-124553054D01*
X193461606Y-124740297D01*
X193461612Y-124740304D01*
X193628495Y-124907187D01*
X193628501Y-124907192D01*
X193815750Y-125050873D01*
X193947118Y-125126718D01*
X194020143Y-125168880D01*
X194020148Y-125168882D01*
X194020151Y-125168884D01*
X194238207Y-125259206D01*
X194466186Y-125320293D01*
X194700189Y-125351100D01*
X194700196Y-125351100D01*
X194936204Y-125351100D01*
X194936211Y-125351100D01*
X195170214Y-125320293D01*
X195398193Y-125259206D01*
X195616249Y-125168884D01*
X195820650Y-125050873D01*
X196007899Y-124907192D01*
X196174792Y-124740299D01*
X196318473Y-124553050D01*
X196436484Y-124348649D01*
X196526806Y-124130593D01*
X196587893Y-123902614D01*
X196618700Y-123668611D01*
X196618700Y-123432589D01*
X196587893Y-123198586D01*
X196526806Y-122970607D01*
X196436484Y-122752551D01*
X196436482Y-122752548D01*
X196436480Y-122752543D01*
X196373473Y-122643413D01*
X196318473Y-122548150D01*
X196174792Y-122360901D01*
X196174787Y-122360895D01*
X196007904Y-122194012D01*
X196007897Y-122194006D01*
X195820654Y-122050330D01*
X195820653Y-122050329D01*
X195820650Y-122050327D01*
X195739157Y-122003277D01*
X195616256Y-121932319D01*
X195616245Y-121932314D01*
X195398193Y-121841994D01*
X195388005Y-121839264D01*
X195170214Y-121780907D01*
X195170213Y-121780906D01*
X195170210Y-121780906D01*
X194936220Y-121750101D01*
X194936217Y-121750100D01*
X194936211Y-121750100D01*
X194700189Y-121750100D01*
X194700183Y-121750100D01*
X194700179Y-121750101D01*
X194466189Y-121780906D01*
X194238206Y-121841994D01*
X194020154Y-121932314D01*
X194020143Y-121932319D01*
X193815745Y-122050330D01*
X193628502Y-122194006D01*
X193628495Y-122194012D01*
X193461612Y-122360895D01*
X193461606Y-122360902D01*
X193317930Y-122548145D01*
X193199919Y-122752543D01*
X193199914Y-122752554D01*
X193109594Y-122970606D01*
X193048506Y-123198589D01*
X193017701Y-123432579D01*
X193017700Y-123432589D01*
X104573646Y-123432589D01*
X104573642Y-123428658D01*
X104571194Y-121051966D01*
X104569395Y-119305355D01*
X110725200Y-119305355D01*
X110725200Y-120603200D01*
X112006136Y-120603200D01*
X111994407Y-120631516D01*
X111965200Y-120778347D01*
X111965200Y-120928053D01*
X111994407Y-121074884D01*
X112006136Y-121103200D01*
X110725200Y-121103200D01*
X110725200Y-122401044D01*
X110731601Y-122460572D01*
X110731603Y-122460579D01*
X110781845Y-122595286D01*
X110781849Y-122595293D01*
X110868009Y-122710387D01*
X110868012Y-122710390D01*
X110983106Y-122796550D01*
X110983113Y-122796554D01*
X111117820Y-122846796D01*
X111117827Y-122846798D01*
X111177355Y-122853199D01*
X111177372Y-122853200D01*
X112475200Y-122853200D01*
X112475200Y-121572264D01*
X112503516Y-121583993D01*
X112650347Y-121613200D01*
X112800053Y-121613200D01*
X112946884Y-121583993D01*
X112975200Y-121572264D01*
X112975200Y-122853200D01*
X114273028Y-122853200D01*
X114273044Y-122853199D01*
X114332572Y-122846798D01*
X114332579Y-122846796D01*
X114467286Y-122796554D01*
X114467293Y-122796550D01*
X114582387Y-122710390D01*
X114582390Y-122710387D01*
X114668550Y-122595293D01*
X114668554Y-122595286D01*
X114718796Y-122460579D01*
X114718798Y-122460573D01*
X114724907Y-122403758D01*
X114724907Y-122403756D01*
X114725199Y-122401033D01*
X114725200Y-122401027D01*
X114725200Y-121312678D01*
X134668800Y-121312678D01*
X134668800Y-121511321D01*
X134699875Y-121707520D01*
X134699875Y-121707523D01*
X134761257Y-121896437D01*
X134851441Y-122073432D01*
X134878530Y-122110715D01*
X134878531Y-122110716D01*
X135549800Y-121439447D01*
X135549800Y-121462160D01*
X135575764Y-121559061D01*
X135625924Y-121645940D01*
X135696860Y-121716876D01*
X135783739Y-121767036D01*
X135880640Y-121793000D01*
X135903353Y-121793000D01*
X135232083Y-122464268D01*
X135232083Y-122464269D01*
X135269367Y-122491358D01*
X135446362Y-122581542D01*
X135635277Y-122642924D01*
X135831479Y-122674000D01*
X136030121Y-122674000D01*
X136226320Y-122642924D01*
X136226323Y-122642924D01*
X136415237Y-122581542D01*
X136592225Y-122491362D01*
X136629516Y-122464268D01*
X135958248Y-121793000D01*
X135980960Y-121793000D01*
X136077861Y-121767036D01*
X136164740Y-121716876D01*
X136235676Y-121645940D01*
X136285836Y-121559061D01*
X136311800Y-121462160D01*
X136311800Y-121439447D01*
X136983068Y-122110715D01*
X137010162Y-122073425D01*
X137095034Y-121906855D01*
X137143008Y-121856059D01*
X137210829Y-121839264D01*
X137276964Y-121861801D01*
X137316003Y-121906854D01*
X137401013Y-122073694D01*
X137517819Y-122234464D01*
X137658336Y-122374981D01*
X137819106Y-122491787D01*
X137905949Y-122536035D01*
X137996167Y-122582005D01*
X137996170Y-122582006D01*
X138090666Y-122612709D01*
X138185164Y-122643413D01*
X138381439Y-122674500D01*
X138381440Y-122674500D01*
X138580160Y-122674500D01*
X138580161Y-122674500D01*
X138776436Y-122643413D01*
X138965432Y-122582005D01*
X139142494Y-122491787D01*
X139303264Y-122374981D01*
X139443781Y-122234464D01*
X139560587Y-122073694D01*
X139640315Y-121917218D01*
X139688290Y-121866423D01*
X139756111Y-121849628D01*
X139822246Y-121872165D01*
X139861284Y-121917218D01*
X139941013Y-122073694D01*
X140057819Y-122234464D01*
X140198336Y-122374981D01*
X140359106Y-122491787D01*
X140445949Y-122536035D01*
X140536167Y-122582005D01*
X140536170Y-122582006D01*
X140630666Y-122612709D01*
X140725164Y-122643413D01*
X140921439Y-122674500D01*
X140921440Y-122674500D01*
X141120160Y-122674500D01*
X141120161Y-122674500D01*
X141316436Y-122643413D01*
X141505432Y-122582005D01*
X141682494Y-122491787D01*
X141843264Y-122374981D01*
X141983781Y-122234464D01*
X142100587Y-122073694D01*
X142180315Y-121917218D01*
X142228290Y-121866423D01*
X142296111Y-121849628D01*
X142362246Y-121872165D01*
X142401284Y-121917218D01*
X142481013Y-122073694D01*
X142597819Y-122234464D01*
X142738336Y-122374981D01*
X142899106Y-122491787D01*
X142985949Y-122536035D01*
X143076167Y-122582005D01*
X143076170Y-122582006D01*
X143170666Y-122612709D01*
X143265164Y-122643413D01*
X143461439Y-122674500D01*
X143461440Y-122674500D01*
X143660160Y-122674500D01*
X143660161Y-122674500D01*
X143856436Y-122643413D01*
X144045432Y-122582005D01*
X144222494Y-122491787D01*
X144383264Y-122374981D01*
X144523781Y-122234464D01*
X144640587Y-122073694D01*
X144730805Y-121896632D01*
X144792213Y-121707636D01*
X144823300Y-121511361D01*
X144823300Y-121312639D01*
X144792213Y-121116364D01*
X144730805Y-120927368D01*
X144730805Y-120927367D01*
X144684835Y-120837149D01*
X144640587Y-120750306D01*
X144523781Y-120589536D01*
X144383264Y-120449019D01*
X144222494Y-120332213D01*
X144045432Y-120241994D01*
X144045429Y-120241993D01*
X143856437Y-120180587D01*
X143758298Y-120165043D01*
X143660161Y-120149500D01*
X143461439Y-120149500D01*
X143396014Y-120159862D01*
X143265162Y-120180587D01*
X143076170Y-120241993D01*
X143076167Y-120241994D01*
X142899105Y-120332213D01*
X142738333Y-120449021D01*
X142597821Y-120589533D01*
X142481013Y-120750305D01*
X142401285Y-120906780D01*
X142353310Y-120957576D01*
X142285489Y-120974371D01*
X142219354Y-120951833D01*
X142180315Y-120906780D01*
X142160979Y-120868832D01*
X142100587Y-120750306D01*
X141983781Y-120589536D01*
X141843264Y-120449019D01*
X141682494Y-120332213D01*
X141505432Y-120241994D01*
X141505429Y-120241993D01*
X141316437Y-120180587D01*
X141218298Y-120165043D01*
X141120161Y-120149500D01*
X140921439Y-120149500D01*
X140856014Y-120159862D01*
X140725162Y-120180587D01*
X140536170Y-120241993D01*
X140536167Y-120241994D01*
X140359105Y-120332213D01*
X140198333Y-120449021D01*
X140057821Y-120589533D01*
X139941013Y-120750305D01*
X139861285Y-120906780D01*
X139813310Y-120957576D01*
X139745489Y-120974371D01*
X139679354Y-120951833D01*
X139640315Y-120906780D01*
X139620979Y-120868832D01*
X139560587Y-120750306D01*
X139443781Y-120589536D01*
X139303264Y-120449019D01*
X139142494Y-120332213D01*
X138965432Y-120241994D01*
X138965429Y-120241993D01*
X138776437Y-120180587D01*
X138678298Y-120165043D01*
X138580161Y-120149500D01*
X138381439Y-120149500D01*
X138316014Y-120159862D01*
X138185162Y-120180587D01*
X137996170Y-120241993D01*
X137996167Y-120241994D01*
X137819105Y-120332213D01*
X137658333Y-120449021D01*
X137517821Y-120589533D01*
X137401013Y-120750305D01*
X137316004Y-120917144D01*
X137268029Y-120967940D01*
X137200208Y-120984735D01*
X137134073Y-120962197D01*
X137095034Y-120917144D01*
X137010158Y-120750567D01*
X136983068Y-120713283D01*
X136311800Y-121384551D01*
X136311800Y-121361840D01*
X136285836Y-121264939D01*
X136235676Y-121178060D01*
X136164740Y-121107124D01*
X136077861Y-121056964D01*
X135980960Y-121031000D01*
X135958247Y-121031000D01*
X136629516Y-120359731D01*
X136629515Y-120359730D01*
X136592232Y-120332641D01*
X136415237Y-120242457D01*
X136226322Y-120181075D01*
X136030121Y-120150000D01*
X135831479Y-120150000D01*
X135635279Y-120181075D01*
X135635276Y-120181075D01*
X135446362Y-120242457D01*
X135269364Y-120332643D01*
X135232083Y-120359729D01*
X135232082Y-120359730D01*
X135903354Y-121031000D01*
X135880640Y-121031000D01*
X135783739Y-121056964D01*
X135696860Y-121107124D01*
X135625924Y-121178060D01*
X135575764Y-121264939D01*
X135549800Y-121361840D01*
X135549800Y-121384552D01*
X134878530Y-120713282D01*
X134878529Y-120713283D01*
X134851443Y-120750564D01*
X134761257Y-120927562D01*
X134699875Y-121116476D01*
X134699875Y-121116479D01*
X134668800Y-121312678D01*
X114725200Y-121312678D01*
X114725200Y-121103200D01*
X113444264Y-121103200D01*
X113455993Y-121074884D01*
X113485200Y-120928053D01*
X113485200Y-120778347D01*
X113455993Y-120631516D01*
X113444264Y-120603200D01*
X114725200Y-120603200D01*
X114725200Y-119305372D01*
X114725199Y-119305355D01*
X114718798Y-119245827D01*
X114718796Y-119245820D01*
X114668554Y-119111113D01*
X114668550Y-119111106D01*
X114582390Y-118996012D01*
X114582387Y-118996009D01*
X114467293Y-118909849D01*
X114467286Y-118909845D01*
X114332579Y-118859603D01*
X114332572Y-118859601D01*
X114273044Y-118853200D01*
X112975200Y-118853200D01*
X112975200Y-120134135D01*
X112946884Y-120122407D01*
X112800053Y-120093200D01*
X112650347Y-120093200D01*
X112503516Y-120122407D01*
X112475200Y-120134135D01*
X112475200Y-118853200D01*
X111177355Y-118853200D01*
X111117827Y-118859601D01*
X111117820Y-118859603D01*
X110983113Y-118909845D01*
X110983106Y-118909849D01*
X110868012Y-118996009D01*
X110868009Y-118996012D01*
X110781849Y-119111106D01*
X110781845Y-119111113D01*
X110731603Y-119245820D01*
X110731601Y-119245827D01*
X110725200Y-119305355D01*
X104569395Y-119305355D01*
X104569392Y-119302179D01*
X104564995Y-115032472D01*
X110673900Y-115032472D01*
X110673900Y-115294727D01*
X110700523Y-115496939D01*
X110708130Y-115554716D01*
X110776002Y-115808018D01*
X110776005Y-115808028D01*
X110876353Y-116050290D01*
X110876358Y-116050300D01*
X111007475Y-116277403D01*
X111167118Y-116485451D01*
X111167126Y-116485460D01*
X111352540Y-116670874D01*
X111352548Y-116670881D01*
X111560596Y-116830524D01*
X111787699Y-116961641D01*
X111787709Y-116961646D01*
X112029971Y-117061994D01*
X112029981Y-117061998D01*
X112283284Y-117129870D01*
X112543280Y-117164100D01*
X112543287Y-117164100D01*
X112805513Y-117164100D01*
X112805520Y-117164100D01*
X113065516Y-117129870D01*
X113318819Y-117061998D01*
X113561097Y-116961643D01*
X113788203Y-116830524D01*
X113996251Y-116670882D01*
X113996255Y-116670877D01*
X113996260Y-116670874D01*
X114181674Y-116485460D01*
X114181677Y-116485455D01*
X114181682Y-116485451D01*
X114341324Y-116277403D01*
X114472443Y-116050297D01*
X114572798Y-115808019D01*
X114640670Y-115554716D01*
X114674900Y-115294720D01*
X114674900Y-115032480D01*
X114640670Y-114772484D01*
X114572798Y-114519181D01*
X114572794Y-114519171D01*
X114472446Y-114276909D01*
X114472441Y-114276899D01*
X114341324Y-114049796D01*
X114181681Y-113841748D01*
X114181674Y-113841740D01*
X113996260Y-113656326D01*
X113996251Y-113656318D01*
X113788203Y-113496675D01*
X113561100Y-113365558D01*
X113561090Y-113365553D01*
X113318828Y-113265205D01*
X113318821Y-113265203D01*
X113318819Y-113265202D01*
X113065516Y-113197330D01*
X113007739Y-113189723D01*
X112805527Y-113163100D01*
X112805520Y-113163100D01*
X112543280Y-113163100D01*
X112543272Y-113163100D01*
X112312172Y-113193526D01*
X112283284Y-113197330D01*
X112029981Y-113265202D01*
X112029971Y-113265205D01*
X111787709Y-113365553D01*
X111787699Y-113365558D01*
X111560596Y-113496675D01*
X111352548Y-113656318D01*
X111167118Y-113841748D01*
X111007475Y-114049796D01*
X110876358Y-114276899D01*
X110876353Y-114276909D01*
X110776005Y-114519171D01*
X110776002Y-114519181D01*
X110708130Y-114772485D01*
X110673900Y-115032472D01*
X104564995Y-115032472D01*
X104564991Y-115028549D01*
X104559763Y-109952472D01*
X110673900Y-109952472D01*
X110673900Y-110214727D01*
X110691708Y-110349982D01*
X110708130Y-110474716D01*
X110744666Y-110611071D01*
X110776002Y-110728018D01*
X110776005Y-110728028D01*
X110876353Y-110970290D01*
X110876358Y-110970300D01*
X111007475Y-111197403D01*
X111167118Y-111405451D01*
X111167126Y-111405460D01*
X111352540Y-111590874D01*
X111352548Y-111590881D01*
X111560596Y-111750524D01*
X111787699Y-111881641D01*
X111787709Y-111881646D01*
X111991426Y-111966028D01*
X112029981Y-111981998D01*
X112283284Y-112049870D01*
X112543280Y-112084100D01*
X112543287Y-112084100D01*
X112805513Y-112084100D01*
X112805520Y-112084100D01*
X113065516Y-112049870D01*
X113318819Y-111981998D01*
X113561097Y-111881643D01*
X113788203Y-111750524D01*
X113996251Y-111590882D01*
X113996255Y-111590877D01*
X113996260Y-111590874D01*
X114181674Y-111405460D01*
X114181677Y-111405455D01*
X114181682Y-111405451D01*
X114341324Y-111197403D01*
X114472443Y-110970297D01*
X114481124Y-110949339D01*
X165103500Y-110949339D01*
X165103500Y-111148060D01*
X165134587Y-111344337D01*
X165195993Y-111533329D01*
X165195994Y-111533332D01*
X165225318Y-111590882D01*
X165286213Y-111710394D01*
X165403019Y-111871164D01*
X165543536Y-112011681D01*
X165704306Y-112128487D01*
X165791149Y-112172735D01*
X165881367Y-112218705D01*
X165881370Y-112218706D01*
X165975866Y-112249409D01*
X166070364Y-112280113D01*
X166266639Y-112311200D01*
X166266640Y-112311200D01*
X166465360Y-112311200D01*
X166465361Y-112311200D01*
X166661636Y-112280113D01*
X166850632Y-112218705D01*
X167027694Y-112128487D01*
X167188464Y-112011681D01*
X167328981Y-111871164D01*
X167445787Y-111710394D01*
X167525515Y-111553918D01*
X167573490Y-111503123D01*
X167641311Y-111486328D01*
X167707446Y-111508865D01*
X167746484Y-111553918D01*
X167826213Y-111710394D01*
X167943019Y-111871164D01*
X168083536Y-112011681D01*
X168244306Y-112128487D01*
X168331149Y-112172735D01*
X168421367Y-112218705D01*
X168421370Y-112218706D01*
X168515866Y-112249409D01*
X168610364Y-112280113D01*
X168806639Y-112311200D01*
X168806640Y-112311200D01*
X169005360Y-112311200D01*
X169005361Y-112311200D01*
X169201636Y-112280113D01*
X169390632Y-112218705D01*
X169567694Y-112128487D01*
X169728464Y-112011681D01*
X169868981Y-111871164D01*
X169985787Y-111710394D01*
X170065515Y-111553918D01*
X170113490Y-111503123D01*
X170181311Y-111486328D01*
X170247446Y-111508865D01*
X170286484Y-111553918D01*
X170366213Y-111710394D01*
X170483019Y-111871164D01*
X170623536Y-112011681D01*
X170784306Y-112128487D01*
X170871149Y-112172735D01*
X170961367Y-112218705D01*
X170961370Y-112218706D01*
X171055866Y-112249409D01*
X171150364Y-112280113D01*
X171346639Y-112311200D01*
X171346640Y-112311200D01*
X171545360Y-112311200D01*
X171545361Y-112311200D01*
X171741636Y-112280113D01*
X171930632Y-112218705D01*
X172107694Y-112128487D01*
X172268464Y-112011681D01*
X172408981Y-111871164D01*
X172525787Y-111710394D01*
X172605515Y-111553918D01*
X172653490Y-111503123D01*
X172721311Y-111486328D01*
X172787446Y-111508865D01*
X172826484Y-111553918D01*
X172906213Y-111710394D01*
X173023019Y-111871164D01*
X173163536Y-112011681D01*
X173324306Y-112128487D01*
X173411149Y-112172735D01*
X173501367Y-112218705D01*
X173501370Y-112218706D01*
X173595866Y-112249409D01*
X173690364Y-112280113D01*
X173886639Y-112311200D01*
X173886640Y-112311200D01*
X174085360Y-112311200D01*
X174085361Y-112311200D01*
X174281636Y-112280113D01*
X174470632Y-112218705D01*
X174647694Y-112128487D01*
X174808464Y-112011681D01*
X174948981Y-111871164D01*
X175065787Y-111710394D01*
X175145515Y-111553918D01*
X175193490Y-111503123D01*
X175261311Y-111486328D01*
X175327446Y-111508865D01*
X175366484Y-111553918D01*
X175446213Y-111710394D01*
X175563019Y-111871164D01*
X175703536Y-112011681D01*
X175864306Y-112128487D01*
X175951149Y-112172735D01*
X176041367Y-112218705D01*
X176041370Y-112218706D01*
X176135866Y-112249409D01*
X176230364Y-112280113D01*
X176426639Y-112311200D01*
X176426640Y-112311200D01*
X176625360Y-112311200D01*
X176625361Y-112311200D01*
X176821636Y-112280113D01*
X177010632Y-112218705D01*
X177187694Y-112128487D01*
X177348464Y-112011681D01*
X177488981Y-111871164D01*
X177605787Y-111710394D01*
X177685515Y-111553918D01*
X177733490Y-111503123D01*
X177801311Y-111486328D01*
X177867446Y-111508865D01*
X177906484Y-111553918D01*
X177986213Y-111710394D01*
X178103019Y-111871164D01*
X178243536Y-112011681D01*
X178404306Y-112128487D01*
X178491149Y-112172735D01*
X178581367Y-112218705D01*
X178581370Y-112218706D01*
X178675866Y-112249409D01*
X178770364Y-112280113D01*
X178966639Y-112311200D01*
X178966640Y-112311200D01*
X179165360Y-112311200D01*
X179165361Y-112311200D01*
X179361636Y-112280113D01*
X179550632Y-112218705D01*
X179727694Y-112128487D01*
X179888464Y-112011681D01*
X180028981Y-111871164D01*
X180145787Y-111710394D01*
X180225515Y-111553918D01*
X180273490Y-111503123D01*
X180341311Y-111486328D01*
X180407446Y-111508865D01*
X180446484Y-111553918D01*
X180526213Y-111710394D01*
X180643019Y-111871164D01*
X180783536Y-112011681D01*
X180944306Y-112128487D01*
X181031149Y-112172735D01*
X181121367Y-112218705D01*
X181121370Y-112218706D01*
X181215866Y-112249409D01*
X181310364Y-112280113D01*
X181506639Y-112311200D01*
X181506640Y-112311200D01*
X181705360Y-112311200D01*
X181705361Y-112311200D01*
X181901636Y-112280113D01*
X182090632Y-112218705D01*
X182267694Y-112128487D01*
X182428464Y-112011681D01*
X182568981Y-111871164D01*
X182685787Y-111710394D01*
X182765515Y-111553918D01*
X182813490Y-111503123D01*
X182881311Y-111486328D01*
X182947446Y-111508865D01*
X182986484Y-111553918D01*
X183066213Y-111710394D01*
X183183019Y-111871164D01*
X183323536Y-112011681D01*
X183484306Y-112128487D01*
X183571149Y-112172735D01*
X183661367Y-112218705D01*
X183661370Y-112218706D01*
X183755866Y-112249409D01*
X183850364Y-112280113D01*
X184046639Y-112311200D01*
X184046640Y-112311200D01*
X184245360Y-112311200D01*
X184245361Y-112311200D01*
X184441636Y-112280113D01*
X184630632Y-112218705D01*
X184807694Y-112128487D01*
X184968464Y-112011681D01*
X185108981Y-111871164D01*
X185225787Y-111710394D01*
X185305515Y-111553918D01*
X185353490Y-111503123D01*
X185421311Y-111486328D01*
X185487446Y-111508865D01*
X185526484Y-111553918D01*
X185606213Y-111710394D01*
X185723019Y-111871164D01*
X185863536Y-112011681D01*
X186024306Y-112128487D01*
X186111149Y-112172735D01*
X186201367Y-112218705D01*
X186201370Y-112218706D01*
X186295866Y-112249409D01*
X186390364Y-112280113D01*
X186586639Y-112311200D01*
X186586640Y-112311200D01*
X186785360Y-112311200D01*
X186785361Y-112311200D01*
X186981636Y-112280113D01*
X187170632Y-112218705D01*
X187347694Y-112128487D01*
X187508464Y-112011681D01*
X187648981Y-111871164D01*
X187765787Y-111710394D01*
X187845796Y-111553367D01*
X187893769Y-111502572D01*
X187961590Y-111485777D01*
X188027725Y-111508314D01*
X188066765Y-111553368D01*
X188146641Y-111710132D01*
X188173730Y-111747415D01*
X188173731Y-111747416D01*
X188845000Y-111076147D01*
X188845000Y-111098860D01*
X188870964Y-111195761D01*
X188921124Y-111282640D01*
X188992060Y-111353576D01*
X189078939Y-111403736D01*
X189175840Y-111429700D01*
X189198553Y-111429700D01*
X188527283Y-112100968D01*
X188527283Y-112100969D01*
X188564567Y-112128058D01*
X188741562Y-112218242D01*
X188930477Y-112279624D01*
X189126679Y-112310700D01*
X189325321Y-112310700D01*
X189521520Y-112279624D01*
X189521523Y-112279624D01*
X189710437Y-112218242D01*
X189887425Y-112128062D01*
X189924716Y-112100968D01*
X189253448Y-111429700D01*
X189276160Y-111429700D01*
X189373061Y-111403736D01*
X189459940Y-111353576D01*
X189530876Y-111282640D01*
X189581036Y-111195761D01*
X189607000Y-111098860D01*
X189607000Y-111076147D01*
X190278268Y-111747415D01*
X190305364Y-111710122D01*
X190385234Y-111553369D01*
X190433208Y-111502572D01*
X190501029Y-111485777D01*
X190567164Y-111508314D01*
X190606203Y-111553367D01*
X190686213Y-111710394D01*
X190803019Y-111871164D01*
X190943536Y-112011681D01*
X191104306Y-112128487D01*
X191191149Y-112172735D01*
X191281367Y-112218705D01*
X191281370Y-112218706D01*
X191375866Y-112249409D01*
X191470364Y-112280113D01*
X191666639Y-112311200D01*
X191666640Y-112311200D01*
X191865360Y-112311200D01*
X191865361Y-112311200D01*
X192061636Y-112280113D01*
X192250632Y-112218705D01*
X192427694Y-112128487D01*
X192588464Y-112011681D01*
X192728981Y-111871164D01*
X192845787Y-111710394D01*
X192925796Y-111553367D01*
X192973769Y-111502572D01*
X193041590Y-111485777D01*
X193107725Y-111508314D01*
X193146765Y-111553368D01*
X193226641Y-111710132D01*
X193253730Y-111747415D01*
X193253731Y-111747416D01*
X193925000Y-111076147D01*
X193925000Y-111098860D01*
X193950964Y-111195761D01*
X194001124Y-111282640D01*
X194072060Y-111353576D01*
X194158939Y-111403736D01*
X194255840Y-111429700D01*
X194278553Y-111429700D01*
X193607283Y-112100968D01*
X193607283Y-112100969D01*
X193644567Y-112128058D01*
X193821562Y-112218242D01*
X194010477Y-112279624D01*
X194206679Y-112310700D01*
X194405321Y-112310700D01*
X194601520Y-112279624D01*
X194601523Y-112279624D01*
X194790437Y-112218242D01*
X194967425Y-112128062D01*
X195004716Y-112100968D01*
X194333448Y-111429700D01*
X194356160Y-111429700D01*
X194453061Y-111403736D01*
X194539940Y-111353576D01*
X194610876Y-111282640D01*
X194661036Y-111195761D01*
X194687000Y-111098860D01*
X194687000Y-111076147D01*
X195358268Y-111747415D01*
X195385364Y-111710122D01*
X195465234Y-111553369D01*
X195513208Y-111502572D01*
X195581029Y-111485777D01*
X195647164Y-111508314D01*
X195686203Y-111553367D01*
X195766213Y-111710394D01*
X195883019Y-111871164D01*
X196023536Y-112011681D01*
X196184306Y-112128487D01*
X196271149Y-112172735D01*
X196361367Y-112218705D01*
X196361370Y-112218706D01*
X196455866Y-112249409D01*
X196550364Y-112280113D01*
X196746639Y-112311200D01*
X196746640Y-112311200D01*
X196945360Y-112311200D01*
X196945361Y-112311200D01*
X197141636Y-112280113D01*
X197330632Y-112218705D01*
X197507694Y-112128487D01*
X197668464Y-112011681D01*
X197808981Y-111871164D01*
X197925787Y-111710394D01*
X198016005Y-111533332D01*
X198077413Y-111344336D01*
X198108500Y-111148061D01*
X198108500Y-110949339D01*
X198077413Y-110753064D01*
X198016005Y-110564068D01*
X198016005Y-110564067D01*
X197970035Y-110473849D01*
X197925787Y-110387006D01*
X197808981Y-110226236D01*
X197668464Y-110085719D01*
X197507694Y-109968913D01*
X197330632Y-109878694D01*
X197330629Y-109878693D01*
X197141637Y-109817287D01*
X197043498Y-109801743D01*
X196945361Y-109786200D01*
X196746639Y-109786200D01*
X196681214Y-109796562D01*
X196550362Y-109817287D01*
X196361370Y-109878693D01*
X196361367Y-109878694D01*
X196184305Y-109968913D01*
X196023533Y-110085721D01*
X195883021Y-110226233D01*
X195766213Y-110387005D01*
X195686204Y-110544031D01*
X195638229Y-110594827D01*
X195570408Y-110611622D01*
X195504273Y-110589084D01*
X195465234Y-110544031D01*
X195385358Y-110387267D01*
X195358268Y-110349983D01*
X194687000Y-111021251D01*
X194687000Y-110998540D01*
X194661036Y-110901639D01*
X194610876Y-110814760D01*
X194539940Y-110743824D01*
X194453061Y-110693664D01*
X194356160Y-110667700D01*
X194333447Y-110667700D01*
X195004716Y-109996431D01*
X195004715Y-109996430D01*
X194967432Y-109969341D01*
X194790437Y-109879157D01*
X194601522Y-109817775D01*
X194405321Y-109786700D01*
X194206679Y-109786700D01*
X194010479Y-109817775D01*
X194010476Y-109817775D01*
X193821562Y-109879157D01*
X193644564Y-109969343D01*
X193607283Y-109996429D01*
X193607282Y-109996430D01*
X194278554Y-110667700D01*
X194255840Y-110667700D01*
X194158939Y-110693664D01*
X194072060Y-110743824D01*
X194001124Y-110814760D01*
X193950964Y-110901639D01*
X193925000Y-110998540D01*
X193925000Y-111021252D01*
X193253730Y-110349982D01*
X193253729Y-110349983D01*
X193226641Y-110387266D01*
X193146764Y-110544032D01*
X193098790Y-110594827D01*
X193030969Y-110611622D01*
X192964834Y-110589084D01*
X192925796Y-110544032D01*
X192845787Y-110387006D01*
X192728981Y-110226236D01*
X192588464Y-110085719D01*
X192427694Y-109968913D01*
X192250632Y-109878694D01*
X192250629Y-109878693D01*
X192061637Y-109817287D01*
X191963498Y-109801743D01*
X191865361Y-109786200D01*
X191666639Y-109786200D01*
X191601214Y-109796562D01*
X191470362Y-109817287D01*
X191281370Y-109878693D01*
X191281367Y-109878694D01*
X191104305Y-109968913D01*
X190943533Y-110085721D01*
X190803021Y-110226233D01*
X190686213Y-110387005D01*
X190606204Y-110544031D01*
X190558229Y-110594827D01*
X190490408Y-110611622D01*
X190424273Y-110589084D01*
X190385234Y-110544031D01*
X190305358Y-110387267D01*
X190278268Y-110349983D01*
X189607000Y-111021251D01*
X189607000Y-110998540D01*
X189581036Y-110901639D01*
X189530876Y-110814760D01*
X189459940Y-110743824D01*
X189373061Y-110693664D01*
X189276160Y-110667700D01*
X189253447Y-110667700D01*
X189924716Y-109996431D01*
X189924715Y-109996430D01*
X189887432Y-109969341D01*
X189710437Y-109879157D01*
X189521522Y-109817775D01*
X189325321Y-109786700D01*
X189126679Y-109786700D01*
X188930479Y-109817775D01*
X188930476Y-109817775D01*
X188741562Y-109879157D01*
X188564564Y-109969343D01*
X188527283Y-109996429D01*
X188527282Y-109996430D01*
X189198554Y-110667700D01*
X189175840Y-110667700D01*
X189078939Y-110693664D01*
X188992060Y-110743824D01*
X188921124Y-110814760D01*
X188870964Y-110901639D01*
X188845000Y-110998540D01*
X188845000Y-111021252D01*
X188173730Y-110349982D01*
X188173729Y-110349983D01*
X188146641Y-110387266D01*
X188066764Y-110544032D01*
X188018790Y-110594827D01*
X187950969Y-110611622D01*
X187884834Y-110589084D01*
X187845796Y-110544032D01*
X187765787Y-110387006D01*
X187648981Y-110226236D01*
X187508464Y-110085719D01*
X187347694Y-109968913D01*
X187170632Y-109878694D01*
X187170629Y-109878693D01*
X186981637Y-109817287D01*
X186883498Y-109801743D01*
X186785361Y-109786200D01*
X186586639Y-109786200D01*
X186521214Y-109796562D01*
X186390362Y-109817287D01*
X186201370Y-109878693D01*
X186201367Y-109878694D01*
X186024305Y-109968913D01*
X185863533Y-110085721D01*
X185723021Y-110226233D01*
X185606213Y-110387005D01*
X185526485Y-110543480D01*
X185478510Y-110594276D01*
X185410689Y-110611071D01*
X185344554Y-110588533D01*
X185305515Y-110543480D01*
X185270477Y-110474714D01*
X185225787Y-110387006D01*
X185108981Y-110226236D01*
X184968464Y-110085719D01*
X184807694Y-109968913D01*
X184630632Y-109878694D01*
X184630629Y-109878693D01*
X184441637Y-109817287D01*
X184343498Y-109801743D01*
X184245361Y-109786200D01*
X184046639Y-109786200D01*
X183981214Y-109796562D01*
X183850362Y-109817287D01*
X183661370Y-109878693D01*
X183661367Y-109878694D01*
X183484305Y-109968913D01*
X183323533Y-110085721D01*
X183183021Y-110226233D01*
X183066213Y-110387005D01*
X182986485Y-110543480D01*
X182938510Y-110594276D01*
X182870689Y-110611071D01*
X182804554Y-110588533D01*
X182765515Y-110543480D01*
X182730477Y-110474714D01*
X182685787Y-110387006D01*
X182568981Y-110226236D01*
X182428464Y-110085719D01*
X182267694Y-109968913D01*
X182090632Y-109878694D01*
X182090629Y-109878693D01*
X181901637Y-109817287D01*
X181803498Y-109801743D01*
X181705361Y-109786200D01*
X181506639Y-109786200D01*
X181441214Y-109796562D01*
X181310362Y-109817287D01*
X181121370Y-109878693D01*
X181121367Y-109878694D01*
X180944305Y-109968913D01*
X180783533Y-110085721D01*
X180643021Y-110226233D01*
X180526213Y-110387005D01*
X180446485Y-110543480D01*
X180398510Y-110594276D01*
X180330689Y-110611071D01*
X180264554Y-110588533D01*
X180225515Y-110543480D01*
X180190477Y-110474714D01*
X180145787Y-110387006D01*
X180028981Y-110226236D01*
X179888464Y-110085719D01*
X179727694Y-109968913D01*
X179550632Y-109878694D01*
X179550629Y-109878693D01*
X179361637Y-109817287D01*
X179263498Y-109801743D01*
X179165361Y-109786200D01*
X178966639Y-109786200D01*
X178901214Y-109796562D01*
X178770362Y-109817287D01*
X178581370Y-109878693D01*
X178581367Y-109878694D01*
X178404305Y-109968913D01*
X178243533Y-110085721D01*
X178103021Y-110226233D01*
X177986213Y-110387005D01*
X177906485Y-110543480D01*
X177858510Y-110594276D01*
X177790689Y-110611071D01*
X177724554Y-110588533D01*
X177685515Y-110543480D01*
X177650477Y-110474714D01*
X177605787Y-110387006D01*
X177488981Y-110226236D01*
X177348464Y-110085719D01*
X177187694Y-109968913D01*
X177010632Y-109878694D01*
X177010629Y-109878693D01*
X176821637Y-109817287D01*
X176723498Y-109801743D01*
X176625361Y-109786200D01*
X176426639Y-109786200D01*
X176361214Y-109796562D01*
X176230362Y-109817287D01*
X176041370Y-109878693D01*
X176041367Y-109878694D01*
X175864305Y-109968913D01*
X175703533Y-110085721D01*
X175563021Y-110226233D01*
X175446213Y-110387005D01*
X175366485Y-110543480D01*
X175318510Y-110594276D01*
X175250689Y-110611071D01*
X175184554Y-110588533D01*
X175145515Y-110543480D01*
X175110477Y-110474714D01*
X175065787Y-110387006D01*
X174948981Y-110226236D01*
X174808464Y-110085719D01*
X174647694Y-109968913D01*
X174470632Y-109878694D01*
X174470629Y-109878693D01*
X174281637Y-109817287D01*
X174183498Y-109801743D01*
X174085361Y-109786200D01*
X173886639Y-109786200D01*
X173821214Y-109796562D01*
X173690362Y-109817287D01*
X173501370Y-109878693D01*
X173501367Y-109878694D01*
X173324305Y-109968913D01*
X173163533Y-110085721D01*
X173023021Y-110226233D01*
X172906213Y-110387005D01*
X172826485Y-110543480D01*
X172778510Y-110594276D01*
X172710689Y-110611071D01*
X172644554Y-110588533D01*
X172605515Y-110543480D01*
X172570477Y-110474714D01*
X172525787Y-110387006D01*
X172408981Y-110226236D01*
X172268464Y-110085719D01*
X172107694Y-109968913D01*
X171930632Y-109878694D01*
X171930629Y-109878693D01*
X171741637Y-109817287D01*
X171643498Y-109801743D01*
X171545361Y-109786200D01*
X171346639Y-109786200D01*
X171281214Y-109796562D01*
X171150362Y-109817287D01*
X170961370Y-109878693D01*
X170961367Y-109878694D01*
X170784305Y-109968913D01*
X170623533Y-110085721D01*
X170483021Y-110226233D01*
X170366213Y-110387005D01*
X170286485Y-110543480D01*
X170238510Y-110594276D01*
X170170689Y-110611071D01*
X170104554Y-110588533D01*
X170065515Y-110543480D01*
X170030477Y-110474714D01*
X169985787Y-110387006D01*
X169868981Y-110226236D01*
X169728464Y-110085719D01*
X169567694Y-109968913D01*
X169390632Y-109878694D01*
X169390629Y-109878693D01*
X169201637Y-109817287D01*
X169103498Y-109801743D01*
X169005361Y-109786200D01*
X168806639Y-109786200D01*
X168741214Y-109796562D01*
X168610362Y-109817287D01*
X168421370Y-109878693D01*
X168421367Y-109878694D01*
X168244305Y-109968913D01*
X168083533Y-110085721D01*
X167943021Y-110226233D01*
X167826213Y-110387005D01*
X167746485Y-110543480D01*
X167698510Y-110594276D01*
X167630689Y-110611071D01*
X167564554Y-110588533D01*
X167525515Y-110543480D01*
X167490477Y-110474714D01*
X167445787Y-110387006D01*
X167328981Y-110226236D01*
X167188464Y-110085719D01*
X167027694Y-109968913D01*
X166850632Y-109878694D01*
X166850629Y-109878693D01*
X166661637Y-109817287D01*
X166563498Y-109801743D01*
X166465361Y-109786200D01*
X166266639Y-109786200D01*
X166201214Y-109796562D01*
X166070362Y-109817287D01*
X165881370Y-109878693D01*
X165881367Y-109878694D01*
X165704305Y-109968913D01*
X165543533Y-110085721D01*
X165403021Y-110226233D01*
X165286213Y-110387005D01*
X165195994Y-110564067D01*
X165195993Y-110564070D01*
X165134587Y-110753062D01*
X165103500Y-110949339D01*
X114481124Y-110949339D01*
X114572798Y-110728019D01*
X114640670Y-110474716D01*
X114674900Y-110214720D01*
X114674900Y-109952480D01*
X114640670Y-109692484D01*
X114572798Y-109439181D01*
X114572794Y-109439171D01*
X114472446Y-109196909D01*
X114472441Y-109196899D01*
X114341324Y-108969796D01*
X114181681Y-108761748D01*
X114181674Y-108761740D01*
X113996260Y-108576326D01*
X113996251Y-108576318D01*
X113788203Y-108416675D01*
X113561100Y-108285558D01*
X113561090Y-108285553D01*
X113318828Y-108185205D01*
X113318821Y-108185203D01*
X113318819Y-108185202D01*
X113065516Y-108117330D01*
X113007739Y-108109723D01*
X112805527Y-108083100D01*
X112805520Y-108083100D01*
X112543280Y-108083100D01*
X112543272Y-108083100D01*
X112312172Y-108113526D01*
X112283284Y-108117330D01*
X112029981Y-108185202D01*
X112029971Y-108185205D01*
X111787709Y-108285553D01*
X111787699Y-108285558D01*
X111560596Y-108416675D01*
X111352548Y-108576318D01*
X111167118Y-108761748D01*
X111007475Y-108969796D01*
X110876358Y-109196899D01*
X110876353Y-109196909D01*
X110776005Y-109439171D01*
X110776002Y-109439181D01*
X110708130Y-109692485D01*
X110673900Y-109952472D01*
X104559763Y-109952472D01*
X104554531Y-104872472D01*
X110673900Y-104872472D01*
X110673900Y-105134727D01*
X110700523Y-105336939D01*
X110708130Y-105394716D01*
X110776002Y-105648018D01*
X110776005Y-105648028D01*
X110876353Y-105890290D01*
X110876358Y-105890300D01*
X111007475Y-106117403D01*
X111167118Y-106325451D01*
X111167126Y-106325460D01*
X111352540Y-106510874D01*
X111352548Y-106510881D01*
X111560596Y-106670524D01*
X111787699Y-106801641D01*
X111787709Y-106801646D01*
X112029971Y-106901994D01*
X112029981Y-106901998D01*
X112283284Y-106969870D01*
X112543280Y-107004100D01*
X112543287Y-107004100D01*
X112805513Y-107004100D01*
X112805520Y-107004100D01*
X113065516Y-106969870D01*
X113318819Y-106901998D01*
X113561097Y-106801643D01*
X113788203Y-106670524D01*
X113996251Y-106510882D01*
X113996255Y-106510877D01*
X113996260Y-106510874D01*
X114181674Y-106325460D01*
X114181677Y-106325455D01*
X114181682Y-106325451D01*
X114341324Y-106117403D01*
X114472443Y-105890297D01*
X114572798Y-105648019D01*
X114640670Y-105394716D01*
X114674900Y-105134720D01*
X114674900Y-104872480D01*
X114640670Y-104612484D01*
X114572798Y-104359181D01*
X114572794Y-104359171D01*
X114472446Y-104116909D01*
X114472441Y-104116899D01*
X114341324Y-103889796D01*
X114181681Y-103681748D01*
X114181674Y-103681740D01*
X113996260Y-103496326D01*
X113996251Y-103496318D01*
X113788203Y-103336675D01*
X113561100Y-103205558D01*
X113561090Y-103205553D01*
X113318828Y-103105205D01*
X113318821Y-103105203D01*
X113318819Y-103105202D01*
X113065516Y-103037330D01*
X113007739Y-103029723D01*
X112805527Y-103003100D01*
X112805520Y-103003100D01*
X112543280Y-103003100D01*
X112543272Y-103003100D01*
X112312172Y-103033526D01*
X112283284Y-103037330D01*
X112029981Y-103105202D01*
X112029971Y-103105205D01*
X111787709Y-103205553D01*
X111787699Y-103205558D01*
X111560596Y-103336675D01*
X111352548Y-103496318D01*
X111167118Y-103681748D01*
X111007475Y-103889796D01*
X110876358Y-104116899D01*
X110876353Y-104116909D01*
X110776005Y-104359171D01*
X110776002Y-104359181D01*
X110708130Y-104612485D01*
X110673900Y-104872472D01*
X104554531Y-104872472D01*
X104554527Y-104868549D01*
X104551494Y-101923599D01*
X104547840Y-98375755D01*
X110674400Y-98375755D01*
X110674400Y-99673600D01*
X111955336Y-99673600D01*
X111943607Y-99701916D01*
X111914400Y-99848747D01*
X111914400Y-99998453D01*
X111943607Y-100145284D01*
X111955336Y-100173600D01*
X110674400Y-100173600D01*
X110674400Y-101471444D01*
X110680801Y-101530972D01*
X110680803Y-101530979D01*
X110731045Y-101665686D01*
X110731049Y-101665693D01*
X110817209Y-101780787D01*
X110817212Y-101780790D01*
X110932306Y-101866950D01*
X110932313Y-101866954D01*
X111067020Y-101917196D01*
X111067027Y-101917198D01*
X111126555Y-101923599D01*
X111126572Y-101923600D01*
X112424400Y-101923600D01*
X112424400Y-100642664D01*
X112452716Y-100654393D01*
X112599547Y-100683600D01*
X112749253Y-100683600D01*
X112896084Y-100654393D01*
X112924400Y-100642664D01*
X112924400Y-101923600D01*
X114222228Y-101923600D01*
X114222244Y-101923599D01*
X114281772Y-101917198D01*
X114281779Y-101917196D01*
X114416486Y-101866954D01*
X114416493Y-101866950D01*
X114531587Y-101780790D01*
X114531590Y-101780787D01*
X114617750Y-101665693D01*
X114617754Y-101665686D01*
X114667996Y-101530979D01*
X114667998Y-101530972D01*
X114674399Y-101471444D01*
X114674400Y-101471427D01*
X114674400Y-100173600D01*
X113393464Y-100173600D01*
X113405193Y-100145284D01*
X113434400Y-99998453D01*
X113434400Y-99848747D01*
X113405193Y-99701916D01*
X113393464Y-99673600D01*
X114674400Y-99673600D01*
X114674400Y-98375772D01*
X114674399Y-98375755D01*
X114667998Y-98316227D01*
X114667996Y-98316220D01*
X114617754Y-98181513D01*
X114617750Y-98181506D01*
X114531590Y-98066412D01*
X114531587Y-98066409D01*
X114416493Y-97980249D01*
X114416486Y-97980245D01*
X114281779Y-97930003D01*
X114281772Y-97930001D01*
X114222244Y-97923600D01*
X112924400Y-97923600D01*
X112924400Y-99204535D01*
X112896084Y-99192807D01*
X112749253Y-99163600D01*
X112599547Y-99163600D01*
X112452716Y-99192807D01*
X112424400Y-99204535D01*
X112424400Y-97923600D01*
X111126555Y-97923600D01*
X111067027Y-97930001D01*
X111067020Y-97930003D01*
X110932313Y-97980245D01*
X110932306Y-97980249D01*
X110817212Y-98066409D01*
X110817209Y-98066412D01*
X110731049Y-98181506D01*
X110731045Y-98181513D01*
X110680803Y-98316220D01*
X110680801Y-98316227D01*
X110674400Y-98375755D01*
X104547840Y-98375755D01*
X104543335Y-94001272D01*
X110572300Y-94001272D01*
X110572300Y-94263527D01*
X110598923Y-94465739D01*
X110606530Y-94523516D01*
X110674402Y-94776818D01*
X110674405Y-94776828D01*
X110774753Y-95019090D01*
X110774758Y-95019100D01*
X110905875Y-95246203D01*
X111065518Y-95454251D01*
X111065526Y-95454260D01*
X111250940Y-95639674D01*
X111250948Y-95639681D01*
X111458996Y-95799324D01*
X111686099Y-95930441D01*
X111686109Y-95930446D01*
X111928371Y-96030794D01*
X111928381Y-96030798D01*
X112181684Y-96098670D01*
X112441680Y-96132900D01*
X112441687Y-96132900D01*
X112703913Y-96132900D01*
X112703920Y-96132900D01*
X112963916Y-96098670D01*
X113217219Y-96030798D01*
X113459497Y-95930443D01*
X113686603Y-95799324D01*
X113894651Y-95639682D01*
X113894655Y-95639677D01*
X113894660Y-95639674D01*
X114080074Y-95454260D01*
X114080077Y-95454255D01*
X114080082Y-95454251D01*
X114239724Y-95246203D01*
X114370843Y-95019097D01*
X114471198Y-94776819D01*
X114539070Y-94523516D01*
X114573300Y-94263520D01*
X114573300Y-94001280D01*
X114539070Y-93741284D01*
X114471198Y-93487981D01*
X114471194Y-93487971D01*
X114370846Y-93245709D01*
X114370841Y-93245699D01*
X114239724Y-93018596D01*
X114080081Y-92810548D01*
X114080074Y-92810540D01*
X113894660Y-92625126D01*
X113894651Y-92625118D01*
X113686603Y-92465475D01*
X113459500Y-92334358D01*
X113459490Y-92334353D01*
X113217228Y-92234005D01*
X113217221Y-92234003D01*
X113217219Y-92234002D01*
X112963916Y-92166130D01*
X112906139Y-92158523D01*
X112703927Y-92131900D01*
X112703920Y-92131900D01*
X112441680Y-92131900D01*
X112441672Y-92131900D01*
X112210572Y-92162326D01*
X112181684Y-92166130D01*
X111928381Y-92234002D01*
X111928371Y-92234005D01*
X111686109Y-92334353D01*
X111686099Y-92334358D01*
X111458996Y-92465475D01*
X111250948Y-92625118D01*
X111065518Y-92810548D01*
X110905875Y-93018596D01*
X110774758Y-93245699D01*
X110774753Y-93245709D01*
X110674405Y-93487971D01*
X110674402Y-93487981D01*
X110606530Y-93741285D01*
X110572300Y-94001272D01*
X104543335Y-94001272D01*
X104538104Y-88921272D01*
X110572300Y-88921272D01*
X110572300Y-89183527D01*
X110583486Y-89268486D01*
X110606530Y-89443516D01*
X110608589Y-89451200D01*
X110674402Y-89696818D01*
X110674405Y-89696828D01*
X110774753Y-89939090D01*
X110774758Y-89939100D01*
X110905875Y-90166203D01*
X111065518Y-90374251D01*
X111065526Y-90374260D01*
X111250940Y-90559674D01*
X111250948Y-90559681D01*
X111458996Y-90719324D01*
X111686099Y-90850441D01*
X111686109Y-90850446D01*
X111928371Y-90950794D01*
X111928381Y-90950798D01*
X112181684Y-91018670D01*
X112441680Y-91052900D01*
X112441687Y-91052900D01*
X112703913Y-91052900D01*
X112703920Y-91052900D01*
X112963916Y-91018670D01*
X113217219Y-90950798D01*
X113459497Y-90850443D01*
X113686603Y-90719324D01*
X113894651Y-90559682D01*
X113894655Y-90559677D01*
X113894660Y-90559674D01*
X114080074Y-90374260D01*
X114080077Y-90374255D01*
X114080082Y-90374251D01*
X114239724Y-90166203D01*
X114370843Y-89939097D01*
X114471198Y-89696819D01*
X114539070Y-89443516D01*
X114573300Y-89183520D01*
X114573300Y-88921280D01*
X114539070Y-88661284D01*
X114471198Y-88407981D01*
X114471194Y-88407971D01*
X114370846Y-88165709D01*
X114370841Y-88165700D01*
X114370840Y-88165699D01*
X114334937Y-88103512D01*
X114326754Y-88089339D01*
X165093500Y-88089339D01*
X165093500Y-88288060D01*
X165124587Y-88484337D01*
X165185993Y-88673329D01*
X165185994Y-88673332D01*
X165276213Y-88850394D01*
X165393019Y-89011164D01*
X165533536Y-89151681D01*
X165694306Y-89268487D01*
X165781149Y-89312735D01*
X165871367Y-89358705D01*
X165871370Y-89358706D01*
X165965866Y-89389409D01*
X166060364Y-89420113D01*
X166256639Y-89451200D01*
X166256640Y-89451200D01*
X166455360Y-89451200D01*
X166455361Y-89451200D01*
X166651636Y-89420113D01*
X166840632Y-89358705D01*
X167017694Y-89268487D01*
X167178464Y-89151681D01*
X167318981Y-89011164D01*
X167435787Y-88850394D01*
X167515515Y-88693918D01*
X167563490Y-88643123D01*
X167631311Y-88626328D01*
X167697446Y-88648865D01*
X167736484Y-88693918D01*
X167816213Y-88850394D01*
X167933019Y-89011164D01*
X168073536Y-89151681D01*
X168234306Y-89268487D01*
X168321149Y-89312735D01*
X168411367Y-89358705D01*
X168411370Y-89358706D01*
X168505866Y-89389409D01*
X168600364Y-89420113D01*
X168796639Y-89451200D01*
X168796640Y-89451200D01*
X168995360Y-89451200D01*
X168995361Y-89451200D01*
X169191636Y-89420113D01*
X169380632Y-89358705D01*
X169557694Y-89268487D01*
X169718464Y-89151681D01*
X169858981Y-89011164D01*
X169975787Y-88850394D01*
X170055515Y-88693918D01*
X170103490Y-88643123D01*
X170171311Y-88626328D01*
X170237446Y-88648865D01*
X170276484Y-88693918D01*
X170356213Y-88850394D01*
X170473019Y-89011164D01*
X170613536Y-89151681D01*
X170774306Y-89268487D01*
X170861149Y-89312735D01*
X170951367Y-89358705D01*
X170951370Y-89358706D01*
X171045866Y-89389409D01*
X171140364Y-89420113D01*
X171336639Y-89451200D01*
X171336640Y-89451200D01*
X171535360Y-89451200D01*
X171535361Y-89451200D01*
X171731636Y-89420113D01*
X171920632Y-89358705D01*
X172097694Y-89268487D01*
X172258464Y-89151681D01*
X172398981Y-89011164D01*
X172515787Y-88850394D01*
X172595515Y-88693918D01*
X172643490Y-88643123D01*
X172711311Y-88626328D01*
X172777446Y-88648865D01*
X172816484Y-88693918D01*
X172896213Y-88850394D01*
X173013019Y-89011164D01*
X173153536Y-89151681D01*
X173314306Y-89268487D01*
X173401149Y-89312735D01*
X173491367Y-89358705D01*
X173491370Y-89358706D01*
X173585866Y-89389409D01*
X173680364Y-89420113D01*
X173876639Y-89451200D01*
X173876640Y-89451200D01*
X174075360Y-89451200D01*
X174075361Y-89451200D01*
X174271636Y-89420113D01*
X174460632Y-89358705D01*
X174637694Y-89268487D01*
X174798464Y-89151681D01*
X174938981Y-89011164D01*
X175055787Y-88850394D01*
X175135515Y-88693918D01*
X175183490Y-88643123D01*
X175251311Y-88626328D01*
X175317446Y-88648865D01*
X175356484Y-88693918D01*
X175436213Y-88850394D01*
X175553019Y-89011164D01*
X175693536Y-89151681D01*
X175854306Y-89268487D01*
X175941149Y-89312735D01*
X176031367Y-89358705D01*
X176031370Y-89358706D01*
X176125866Y-89389409D01*
X176220364Y-89420113D01*
X176416639Y-89451200D01*
X176416640Y-89451200D01*
X176615360Y-89451200D01*
X176615361Y-89451200D01*
X176811636Y-89420113D01*
X177000632Y-89358705D01*
X177177694Y-89268487D01*
X177338464Y-89151681D01*
X177478981Y-89011164D01*
X177595787Y-88850394D01*
X177675515Y-88693918D01*
X177723490Y-88643123D01*
X177791311Y-88626328D01*
X177857446Y-88648865D01*
X177896484Y-88693918D01*
X177976213Y-88850394D01*
X178093019Y-89011164D01*
X178233536Y-89151681D01*
X178394306Y-89268487D01*
X178481149Y-89312735D01*
X178571367Y-89358705D01*
X178571370Y-89358706D01*
X178665866Y-89389409D01*
X178760364Y-89420113D01*
X178956639Y-89451200D01*
X178956640Y-89451200D01*
X179155360Y-89451200D01*
X179155361Y-89451200D01*
X179351636Y-89420113D01*
X179540632Y-89358705D01*
X179717694Y-89268487D01*
X179878464Y-89151681D01*
X180018981Y-89011164D01*
X180135787Y-88850394D01*
X180215515Y-88693918D01*
X180263490Y-88643123D01*
X180331311Y-88626328D01*
X180397446Y-88648865D01*
X180436484Y-88693918D01*
X180516213Y-88850394D01*
X180633019Y-89011164D01*
X180773536Y-89151681D01*
X180934306Y-89268487D01*
X181021149Y-89312735D01*
X181111367Y-89358705D01*
X181111370Y-89358706D01*
X181205866Y-89389409D01*
X181300364Y-89420113D01*
X181496639Y-89451200D01*
X181496640Y-89451200D01*
X181695360Y-89451200D01*
X181695361Y-89451200D01*
X181891636Y-89420113D01*
X182080632Y-89358705D01*
X182257694Y-89268487D01*
X182418464Y-89151681D01*
X182558981Y-89011164D01*
X182675787Y-88850394D01*
X182755515Y-88693918D01*
X182803490Y-88643123D01*
X182871311Y-88626328D01*
X182937446Y-88648865D01*
X182976484Y-88693918D01*
X183056213Y-88850394D01*
X183173019Y-89011164D01*
X183313536Y-89151681D01*
X183474306Y-89268487D01*
X183561149Y-89312735D01*
X183651367Y-89358705D01*
X183651370Y-89358706D01*
X183745866Y-89389409D01*
X183840364Y-89420113D01*
X184036639Y-89451200D01*
X184036640Y-89451200D01*
X184235360Y-89451200D01*
X184235361Y-89451200D01*
X184431636Y-89420113D01*
X184620632Y-89358705D01*
X184797694Y-89268487D01*
X184958464Y-89151681D01*
X185098981Y-89011164D01*
X185215787Y-88850394D01*
X185295515Y-88693918D01*
X185343490Y-88643123D01*
X185411311Y-88626328D01*
X185477446Y-88648865D01*
X185516484Y-88693918D01*
X185596213Y-88850394D01*
X185713019Y-89011164D01*
X185853536Y-89151681D01*
X186014306Y-89268487D01*
X186101149Y-89312735D01*
X186191367Y-89358705D01*
X186191370Y-89358706D01*
X186285866Y-89389409D01*
X186380364Y-89420113D01*
X186576639Y-89451200D01*
X186576640Y-89451200D01*
X186775360Y-89451200D01*
X186775361Y-89451200D01*
X186971636Y-89420113D01*
X187160632Y-89358705D01*
X187337694Y-89268487D01*
X187498464Y-89151681D01*
X187638981Y-89011164D01*
X187755787Y-88850394D01*
X187835515Y-88693918D01*
X187883490Y-88643123D01*
X187951311Y-88626328D01*
X188017446Y-88648865D01*
X188056484Y-88693918D01*
X188136213Y-88850394D01*
X188253019Y-89011164D01*
X188393536Y-89151681D01*
X188554306Y-89268487D01*
X188641149Y-89312735D01*
X188731367Y-89358705D01*
X188731370Y-89358706D01*
X188825866Y-89389409D01*
X188920364Y-89420113D01*
X189116639Y-89451200D01*
X189116640Y-89451200D01*
X189315360Y-89451200D01*
X189315361Y-89451200D01*
X189511636Y-89420113D01*
X189700632Y-89358705D01*
X189877694Y-89268487D01*
X190038464Y-89151681D01*
X190178981Y-89011164D01*
X190295787Y-88850394D01*
X190375515Y-88693918D01*
X190423490Y-88643123D01*
X190491311Y-88626328D01*
X190557446Y-88648865D01*
X190596484Y-88693918D01*
X190676213Y-88850394D01*
X190793019Y-89011164D01*
X190933536Y-89151681D01*
X191094306Y-89268487D01*
X191181149Y-89312735D01*
X191271367Y-89358705D01*
X191271370Y-89358706D01*
X191365866Y-89389409D01*
X191460364Y-89420113D01*
X191656639Y-89451200D01*
X191656640Y-89451200D01*
X191855360Y-89451200D01*
X191855361Y-89451200D01*
X192051636Y-89420113D01*
X192240632Y-89358705D01*
X192417694Y-89268487D01*
X192578464Y-89151681D01*
X192718981Y-89011164D01*
X192835787Y-88850394D01*
X192915515Y-88693918D01*
X192963490Y-88643123D01*
X193031311Y-88626328D01*
X193097446Y-88648865D01*
X193136484Y-88693918D01*
X193216213Y-88850394D01*
X193333019Y-89011164D01*
X193473536Y-89151681D01*
X193634306Y-89268487D01*
X193721149Y-89312735D01*
X193811367Y-89358705D01*
X193811370Y-89358706D01*
X193905866Y-89389409D01*
X194000364Y-89420113D01*
X194196639Y-89451200D01*
X194196640Y-89451200D01*
X194395360Y-89451200D01*
X194395361Y-89451200D01*
X194591636Y-89420113D01*
X194780632Y-89358705D01*
X194957694Y-89268487D01*
X195118464Y-89151681D01*
X195258981Y-89011164D01*
X195375787Y-88850394D01*
X195455515Y-88693918D01*
X195503490Y-88643123D01*
X195571311Y-88626328D01*
X195637446Y-88648865D01*
X195676484Y-88693918D01*
X195756213Y-88850394D01*
X195873019Y-89011164D01*
X196013536Y-89151681D01*
X196174306Y-89268487D01*
X196261149Y-89312735D01*
X196351367Y-89358705D01*
X196351370Y-89358706D01*
X196445866Y-89389409D01*
X196540364Y-89420113D01*
X196736639Y-89451200D01*
X196736640Y-89451200D01*
X196935360Y-89451200D01*
X196935361Y-89451200D01*
X197131636Y-89420113D01*
X197320632Y-89358705D01*
X197497694Y-89268487D01*
X197658464Y-89151681D01*
X197798981Y-89011164D01*
X197915787Y-88850394D01*
X198006005Y-88673332D01*
X198067413Y-88484336D01*
X198098500Y-88288061D01*
X198098500Y-88089339D01*
X198067413Y-87893064D01*
X198006005Y-87704068D01*
X198006005Y-87704067D01*
X197960035Y-87613849D01*
X197915787Y-87527006D01*
X197798981Y-87366236D01*
X197658464Y-87225719D01*
X197497694Y-87108913D01*
X197320632Y-87018694D01*
X197320629Y-87018693D01*
X197131637Y-86957287D01*
X197033498Y-86941743D01*
X196935361Y-86926200D01*
X196736639Y-86926200D01*
X196671214Y-86936562D01*
X196540362Y-86957287D01*
X196351370Y-87018693D01*
X196351367Y-87018694D01*
X196174305Y-87108913D01*
X196013533Y-87225721D01*
X195873021Y-87366233D01*
X195756213Y-87527005D01*
X195676485Y-87683480D01*
X195628510Y-87734276D01*
X195560689Y-87751071D01*
X195494554Y-87728533D01*
X195455515Y-87683480D01*
X195436179Y-87645532D01*
X195375787Y-87527006D01*
X195258981Y-87366236D01*
X195118464Y-87225719D01*
X194957694Y-87108913D01*
X194780632Y-87018694D01*
X194780629Y-87018693D01*
X194591637Y-86957287D01*
X194493498Y-86941743D01*
X194395361Y-86926200D01*
X194196639Y-86926200D01*
X194131214Y-86936562D01*
X194000362Y-86957287D01*
X193811370Y-87018693D01*
X193811367Y-87018694D01*
X193634305Y-87108913D01*
X193473533Y-87225721D01*
X193333021Y-87366233D01*
X193216213Y-87527005D01*
X193136485Y-87683480D01*
X193088510Y-87734276D01*
X193020689Y-87751071D01*
X192954554Y-87728533D01*
X192915515Y-87683480D01*
X192896179Y-87645532D01*
X192835787Y-87527006D01*
X192718981Y-87366236D01*
X192578464Y-87225719D01*
X192417694Y-87108913D01*
X192240632Y-87018694D01*
X192240629Y-87018693D01*
X192051637Y-86957287D01*
X191953498Y-86941743D01*
X191855361Y-86926200D01*
X191656639Y-86926200D01*
X191591214Y-86936562D01*
X191460362Y-86957287D01*
X191271370Y-87018693D01*
X191271367Y-87018694D01*
X191094305Y-87108913D01*
X190933533Y-87225721D01*
X190793021Y-87366233D01*
X190676213Y-87527005D01*
X190596485Y-87683480D01*
X190548510Y-87734276D01*
X190480689Y-87751071D01*
X190414554Y-87728533D01*
X190375515Y-87683480D01*
X190356179Y-87645532D01*
X190295787Y-87527006D01*
X190178981Y-87366236D01*
X190038464Y-87225719D01*
X189877694Y-87108913D01*
X189700632Y-87018694D01*
X189700629Y-87018693D01*
X189511637Y-86957287D01*
X189413498Y-86941743D01*
X189315361Y-86926200D01*
X189116639Y-86926200D01*
X189051214Y-86936562D01*
X188920362Y-86957287D01*
X188731370Y-87018693D01*
X188731367Y-87018694D01*
X188554305Y-87108913D01*
X188393533Y-87225721D01*
X188253021Y-87366233D01*
X188136213Y-87527005D01*
X188056485Y-87683480D01*
X188008510Y-87734276D01*
X187940689Y-87751071D01*
X187874554Y-87728533D01*
X187835515Y-87683480D01*
X187816179Y-87645532D01*
X187755787Y-87527006D01*
X187638981Y-87366236D01*
X187498464Y-87225719D01*
X187337694Y-87108913D01*
X187160632Y-87018694D01*
X187160629Y-87018693D01*
X186971637Y-86957287D01*
X186873498Y-86941743D01*
X186775361Y-86926200D01*
X186576639Y-86926200D01*
X186511214Y-86936562D01*
X186380362Y-86957287D01*
X186191370Y-87018693D01*
X186191367Y-87018694D01*
X186014305Y-87108913D01*
X185853533Y-87225721D01*
X185713021Y-87366233D01*
X185596213Y-87527005D01*
X185516485Y-87683480D01*
X185468510Y-87734276D01*
X185400689Y-87751071D01*
X185334554Y-87728533D01*
X185295515Y-87683480D01*
X185276179Y-87645532D01*
X185215787Y-87527006D01*
X185098981Y-87366236D01*
X184958464Y-87225719D01*
X184797694Y-87108913D01*
X184620632Y-87018694D01*
X184620629Y-87018693D01*
X184431637Y-86957287D01*
X184333498Y-86941743D01*
X184235361Y-86926200D01*
X184036639Y-86926200D01*
X183971214Y-86936562D01*
X183840362Y-86957287D01*
X183651370Y-87018693D01*
X183651367Y-87018694D01*
X183474305Y-87108913D01*
X183313533Y-87225721D01*
X183173021Y-87366233D01*
X183056213Y-87527005D01*
X182976485Y-87683480D01*
X182928510Y-87734276D01*
X182860689Y-87751071D01*
X182794554Y-87728533D01*
X182755515Y-87683480D01*
X182736179Y-87645532D01*
X182675787Y-87527006D01*
X182558981Y-87366236D01*
X182418464Y-87225719D01*
X182257694Y-87108913D01*
X182080632Y-87018694D01*
X182080629Y-87018693D01*
X181891637Y-86957287D01*
X181793498Y-86941743D01*
X181695361Y-86926200D01*
X181496639Y-86926200D01*
X181431214Y-86936562D01*
X181300362Y-86957287D01*
X181111370Y-87018693D01*
X181111367Y-87018694D01*
X180934305Y-87108913D01*
X180773533Y-87225721D01*
X180633021Y-87366233D01*
X180516213Y-87527005D01*
X180436485Y-87683480D01*
X180388510Y-87734276D01*
X180320689Y-87751071D01*
X180254554Y-87728533D01*
X180215515Y-87683480D01*
X180196179Y-87645532D01*
X180135787Y-87527006D01*
X180018981Y-87366236D01*
X179878464Y-87225719D01*
X179717694Y-87108913D01*
X179540632Y-87018694D01*
X179540629Y-87018693D01*
X179351637Y-86957287D01*
X179253498Y-86941743D01*
X179155361Y-86926200D01*
X178956639Y-86926200D01*
X178891214Y-86936562D01*
X178760362Y-86957287D01*
X178571370Y-87018693D01*
X178571367Y-87018694D01*
X178394305Y-87108913D01*
X178233533Y-87225721D01*
X178093021Y-87366233D01*
X177976213Y-87527005D01*
X177896485Y-87683480D01*
X177848510Y-87734276D01*
X177780689Y-87751071D01*
X177714554Y-87728533D01*
X177675515Y-87683480D01*
X177656179Y-87645532D01*
X177595787Y-87527006D01*
X177478981Y-87366236D01*
X177338464Y-87225719D01*
X177177694Y-87108913D01*
X177000632Y-87018694D01*
X177000629Y-87018693D01*
X176811637Y-86957287D01*
X176713498Y-86941743D01*
X176615361Y-86926200D01*
X176416639Y-86926200D01*
X176351214Y-86936562D01*
X176220362Y-86957287D01*
X176031370Y-87018693D01*
X176031367Y-87018694D01*
X175854305Y-87108913D01*
X175693533Y-87225721D01*
X175553021Y-87366233D01*
X175436213Y-87527005D01*
X175356485Y-87683480D01*
X175308510Y-87734276D01*
X175240689Y-87751071D01*
X175174554Y-87728533D01*
X175135515Y-87683480D01*
X175116179Y-87645532D01*
X175055787Y-87527006D01*
X174938981Y-87366236D01*
X174798464Y-87225719D01*
X174637694Y-87108913D01*
X174460632Y-87018694D01*
X174460629Y-87018693D01*
X174271637Y-86957287D01*
X174173498Y-86941743D01*
X174075361Y-86926200D01*
X173876639Y-86926200D01*
X173811214Y-86936562D01*
X173680362Y-86957287D01*
X173491370Y-87018693D01*
X173491367Y-87018694D01*
X173314305Y-87108913D01*
X173153533Y-87225721D01*
X173013021Y-87366233D01*
X172896213Y-87527005D01*
X172816485Y-87683480D01*
X172768510Y-87734276D01*
X172700689Y-87751071D01*
X172634554Y-87728533D01*
X172595515Y-87683480D01*
X172576179Y-87645532D01*
X172515787Y-87527006D01*
X172398981Y-87366236D01*
X172258464Y-87225719D01*
X172097694Y-87108913D01*
X171920632Y-87018694D01*
X171920629Y-87018693D01*
X171731637Y-86957287D01*
X171633498Y-86941743D01*
X171535361Y-86926200D01*
X171336639Y-86926200D01*
X171271214Y-86936562D01*
X171140362Y-86957287D01*
X170951370Y-87018693D01*
X170951367Y-87018694D01*
X170774305Y-87108913D01*
X170613533Y-87225721D01*
X170473021Y-87366233D01*
X170356213Y-87527005D01*
X170276485Y-87683480D01*
X170228510Y-87734276D01*
X170160689Y-87751071D01*
X170094554Y-87728533D01*
X170055515Y-87683480D01*
X170036179Y-87645532D01*
X169975787Y-87527006D01*
X169858981Y-87366236D01*
X169718464Y-87225719D01*
X169557694Y-87108913D01*
X169380632Y-87018694D01*
X169380629Y-87018693D01*
X169191637Y-86957287D01*
X169093498Y-86941743D01*
X168995361Y-86926200D01*
X168796639Y-86926200D01*
X168731214Y-86936562D01*
X168600362Y-86957287D01*
X168411370Y-87018693D01*
X168411367Y-87018694D01*
X168234305Y-87108913D01*
X168073533Y-87225721D01*
X167933021Y-87366233D01*
X167816213Y-87527005D01*
X167736485Y-87683480D01*
X167688510Y-87734276D01*
X167620689Y-87751071D01*
X167554554Y-87728533D01*
X167515515Y-87683480D01*
X167496179Y-87645532D01*
X167435787Y-87527006D01*
X167318981Y-87366236D01*
X167178464Y-87225719D01*
X167017694Y-87108913D01*
X166840632Y-87018694D01*
X166840629Y-87018693D01*
X166651637Y-86957287D01*
X166553498Y-86941743D01*
X166455361Y-86926200D01*
X166256639Y-86926200D01*
X166191214Y-86936562D01*
X166060362Y-86957287D01*
X165871370Y-87018693D01*
X165871367Y-87018694D01*
X165694305Y-87108913D01*
X165533533Y-87225721D01*
X165393021Y-87366233D01*
X165276213Y-87527005D01*
X165185994Y-87704067D01*
X165185993Y-87704070D01*
X165124587Y-87893062D01*
X165093500Y-88089339D01*
X114326754Y-88089339D01*
X114239724Y-87938596D01*
X114080081Y-87730548D01*
X114080074Y-87730540D01*
X113894660Y-87545126D01*
X113894651Y-87545118D01*
X113686603Y-87385475D01*
X113459500Y-87254358D01*
X113459490Y-87254353D01*
X113217228Y-87154005D01*
X113217221Y-87154003D01*
X113217219Y-87154002D01*
X112963916Y-87086130D01*
X112906139Y-87078523D01*
X112703927Y-87051900D01*
X112703920Y-87051900D01*
X112441680Y-87051900D01*
X112441672Y-87051900D01*
X112210572Y-87082326D01*
X112181684Y-87086130D01*
X111928381Y-87154002D01*
X111928371Y-87154005D01*
X111686109Y-87254353D01*
X111686099Y-87254358D01*
X111458996Y-87385475D01*
X111250948Y-87545118D01*
X111065518Y-87730548D01*
X110905875Y-87938596D01*
X110774758Y-88165699D01*
X110774753Y-88165709D01*
X110674405Y-88407971D01*
X110674402Y-88407981D01*
X110615897Y-88626328D01*
X110606530Y-88661285D01*
X110572300Y-88921272D01*
X104538104Y-88921272D01*
X104532872Y-83841272D01*
X110572300Y-83841272D01*
X110572300Y-84103527D01*
X110598923Y-84305739D01*
X110606530Y-84363516D01*
X110674402Y-84616818D01*
X110674405Y-84616828D01*
X110774753Y-84859090D01*
X110774758Y-84859100D01*
X110905875Y-85086203D01*
X111065518Y-85294251D01*
X111065526Y-85294260D01*
X111250940Y-85479674D01*
X111250948Y-85479681D01*
X111458996Y-85639324D01*
X111686099Y-85770441D01*
X111686109Y-85770446D01*
X111928371Y-85870794D01*
X111928381Y-85870798D01*
X112181684Y-85938670D01*
X112441680Y-85972900D01*
X112441687Y-85972900D01*
X112703913Y-85972900D01*
X112703920Y-85972900D01*
X112963916Y-85938670D01*
X113217219Y-85870798D01*
X113459497Y-85770443D01*
X113686603Y-85639324D01*
X113894651Y-85479682D01*
X113894655Y-85479677D01*
X113894660Y-85479674D01*
X114080074Y-85294260D01*
X114080077Y-85294255D01*
X114080082Y-85294251D01*
X114239724Y-85086203D01*
X114370843Y-84859097D01*
X114471198Y-84616819D01*
X114539070Y-84363516D01*
X114573300Y-84103520D01*
X114573300Y-83841280D01*
X114539070Y-83581284D01*
X114471198Y-83327981D01*
X114471194Y-83327971D01*
X114370846Y-83085709D01*
X114370841Y-83085699D01*
X114239724Y-82858596D01*
X114080081Y-82650548D01*
X114080074Y-82650540D01*
X113894660Y-82465126D01*
X113894651Y-82465118D01*
X113686603Y-82305475D01*
X113459500Y-82174358D01*
X113459490Y-82174353D01*
X113217228Y-82074005D01*
X113217221Y-82074003D01*
X113217219Y-82074002D01*
X112963916Y-82006130D01*
X112906139Y-81998523D01*
X112703927Y-81971900D01*
X112703920Y-81971900D01*
X112441680Y-81971900D01*
X112441672Y-81971900D01*
X112210572Y-82002326D01*
X112181684Y-82006130D01*
X111928381Y-82074002D01*
X111928371Y-82074005D01*
X111686109Y-82174353D01*
X111686099Y-82174358D01*
X111458996Y-82305475D01*
X111250948Y-82465118D01*
X111065518Y-82650548D01*
X110905875Y-82858596D01*
X110774758Y-83085699D01*
X110774753Y-83085709D01*
X110674405Y-83327971D01*
X110674402Y-83327981D01*
X110606530Y-83581285D01*
X110572300Y-83841272D01*
X104532872Y-83841272D01*
X104526181Y-77344555D01*
X110572800Y-77344555D01*
X110572800Y-78642400D01*
X111853736Y-78642400D01*
X111842007Y-78670716D01*
X111812800Y-78817547D01*
X111812800Y-78967253D01*
X111842007Y-79114084D01*
X111853736Y-79142400D01*
X110572800Y-79142400D01*
X110572800Y-80440244D01*
X110579201Y-80499772D01*
X110579203Y-80499779D01*
X110629445Y-80634486D01*
X110629449Y-80634493D01*
X110715609Y-80749587D01*
X110715612Y-80749590D01*
X110830706Y-80835750D01*
X110830713Y-80835754D01*
X110965420Y-80885996D01*
X110965427Y-80885998D01*
X111024955Y-80892399D01*
X111024972Y-80892400D01*
X112322800Y-80892400D01*
X112322800Y-79611464D01*
X112351116Y-79623193D01*
X112497947Y-79652400D01*
X112647653Y-79652400D01*
X112794484Y-79623193D01*
X112822800Y-79611464D01*
X112822800Y-80892400D01*
X114120628Y-80892400D01*
X114120644Y-80892399D01*
X114180172Y-80885998D01*
X114180179Y-80885996D01*
X114314886Y-80835754D01*
X114314893Y-80835750D01*
X114429987Y-80749590D01*
X114429990Y-80749587D01*
X114516150Y-80634493D01*
X114516154Y-80634486D01*
X114566396Y-80499779D01*
X114566398Y-80499772D01*
X114572799Y-80440244D01*
X114572800Y-80440227D01*
X114572800Y-79452639D01*
X134688300Y-79452639D01*
X134688300Y-79651360D01*
X134719387Y-79847637D01*
X134780793Y-80036629D01*
X134780794Y-80036632D01*
X134871013Y-80213694D01*
X134987819Y-80374464D01*
X135128336Y-80514981D01*
X135289106Y-80631787D01*
X135375949Y-80676035D01*
X135466167Y-80722005D01*
X135466170Y-80722006D01*
X135551057Y-80749587D01*
X135655164Y-80783413D01*
X135851439Y-80814500D01*
X135851440Y-80814500D01*
X136050160Y-80814500D01*
X136050161Y-80814500D01*
X136246436Y-80783413D01*
X136435432Y-80722005D01*
X136612494Y-80631787D01*
X136773264Y-80514981D01*
X136913781Y-80374464D01*
X137030587Y-80213694D01*
X137115315Y-80047405D01*
X137163290Y-79996610D01*
X137231111Y-79979815D01*
X137297246Y-80002352D01*
X137336284Y-80047405D01*
X137421013Y-80213694D01*
X137537819Y-80374464D01*
X137678336Y-80514981D01*
X137839106Y-80631787D01*
X137925949Y-80676035D01*
X138016167Y-80722005D01*
X138016170Y-80722006D01*
X138101057Y-80749587D01*
X138205164Y-80783413D01*
X138401439Y-80814500D01*
X138401440Y-80814500D01*
X138600160Y-80814500D01*
X138600161Y-80814500D01*
X138796436Y-80783413D01*
X138985432Y-80722005D01*
X139162494Y-80631787D01*
X139323264Y-80514981D01*
X139463781Y-80374464D01*
X139580587Y-80213694D01*
X139660315Y-80057218D01*
X139708290Y-80006423D01*
X139776111Y-79989628D01*
X139842246Y-80012165D01*
X139881284Y-80057218D01*
X139961013Y-80213694D01*
X140077819Y-80374464D01*
X140218336Y-80514981D01*
X140379106Y-80631787D01*
X140465949Y-80676035D01*
X140556167Y-80722005D01*
X140556170Y-80722006D01*
X140641057Y-80749587D01*
X140745164Y-80783413D01*
X140941439Y-80814500D01*
X140941440Y-80814500D01*
X141140160Y-80814500D01*
X141140161Y-80814500D01*
X141336436Y-80783413D01*
X141525432Y-80722005D01*
X141702494Y-80631787D01*
X141863264Y-80514981D01*
X142003781Y-80374464D01*
X142120587Y-80213694D01*
X142200315Y-80057218D01*
X142248290Y-80006423D01*
X142316111Y-79989628D01*
X142382246Y-80012165D01*
X142421284Y-80057218D01*
X142501013Y-80213694D01*
X142617819Y-80374464D01*
X142758336Y-80514981D01*
X142919106Y-80631787D01*
X143005949Y-80676035D01*
X143096167Y-80722005D01*
X143096170Y-80722006D01*
X143181057Y-80749587D01*
X143285164Y-80783413D01*
X143481439Y-80814500D01*
X143481440Y-80814500D01*
X143680160Y-80814500D01*
X143680161Y-80814500D01*
X143876436Y-80783413D01*
X144065432Y-80722005D01*
X144242494Y-80631787D01*
X144403264Y-80514981D01*
X144543781Y-80374464D01*
X144660587Y-80213694D01*
X144750805Y-80036632D01*
X144812213Y-79847636D01*
X144843300Y-79651361D01*
X144843300Y-79452639D01*
X144812213Y-79256364D01*
X144775184Y-79142400D01*
X144750806Y-79067370D01*
X144750805Y-79067367D01*
X144660586Y-78890305D01*
X144543781Y-78729536D01*
X144403264Y-78589019D01*
X144242494Y-78472213D01*
X144065432Y-78381994D01*
X144065429Y-78381993D01*
X143876437Y-78320587D01*
X143778298Y-78305043D01*
X143680161Y-78289500D01*
X143481439Y-78289500D01*
X143416014Y-78299862D01*
X143285162Y-78320587D01*
X143096170Y-78381993D01*
X143096167Y-78381994D01*
X142919105Y-78472213D01*
X142758333Y-78589021D01*
X142617821Y-78729533D01*
X142501013Y-78890305D01*
X142421285Y-79046780D01*
X142373310Y-79097576D01*
X142305489Y-79114371D01*
X142239354Y-79091833D01*
X142200315Y-79046780D01*
X142180979Y-79008832D01*
X142120587Y-78890306D01*
X142003781Y-78729536D01*
X141863264Y-78589019D01*
X141702494Y-78472213D01*
X141525432Y-78381994D01*
X141525429Y-78381993D01*
X141336437Y-78320587D01*
X141238298Y-78305043D01*
X141140161Y-78289500D01*
X140941439Y-78289500D01*
X140876014Y-78299862D01*
X140745162Y-78320587D01*
X140556170Y-78381993D01*
X140556167Y-78381994D01*
X140379105Y-78472213D01*
X140218333Y-78589021D01*
X140077821Y-78729533D01*
X139961013Y-78890305D01*
X139881285Y-79046780D01*
X139833310Y-79097576D01*
X139765489Y-79114371D01*
X139699354Y-79091833D01*
X139660315Y-79046780D01*
X139640979Y-79008832D01*
X139580587Y-78890306D01*
X139463781Y-78729536D01*
X139323264Y-78589019D01*
X139162494Y-78472213D01*
X138985432Y-78381994D01*
X138985429Y-78381993D01*
X138796437Y-78320587D01*
X138698298Y-78305043D01*
X138600161Y-78289500D01*
X138401439Y-78289500D01*
X138336014Y-78299862D01*
X138205162Y-78320587D01*
X138016170Y-78381993D01*
X138016167Y-78381994D01*
X137839105Y-78472213D01*
X137678333Y-78589021D01*
X137537821Y-78729533D01*
X137421013Y-78890305D01*
X137336285Y-79056593D01*
X137288310Y-79107389D01*
X137220489Y-79124184D01*
X137154354Y-79101646D01*
X137115315Y-79056593D01*
X137094340Y-79015429D01*
X137030587Y-78890306D01*
X136913781Y-78729536D01*
X136773264Y-78589019D01*
X136612494Y-78472213D01*
X136435432Y-78381994D01*
X136435429Y-78381993D01*
X136246437Y-78320587D01*
X136148298Y-78305043D01*
X136050161Y-78289500D01*
X135851439Y-78289500D01*
X135786014Y-78299862D01*
X135655162Y-78320587D01*
X135466170Y-78381993D01*
X135466167Y-78381994D01*
X135289105Y-78472213D01*
X135128333Y-78589021D01*
X134987821Y-78729533D01*
X134871013Y-78890305D01*
X134780794Y-79067367D01*
X134780793Y-79067370D01*
X134719387Y-79256362D01*
X134688300Y-79452639D01*
X114572800Y-79452639D01*
X114572800Y-79142400D01*
X113291864Y-79142400D01*
X113303593Y-79114084D01*
X113332800Y-78967253D01*
X113332800Y-78817547D01*
X113303593Y-78670716D01*
X113291864Y-78642400D01*
X114572800Y-78642400D01*
X114572800Y-77344572D01*
X114572799Y-77344555D01*
X114566398Y-77285027D01*
X114566396Y-77285020D01*
X114516154Y-77150313D01*
X114516150Y-77150306D01*
X114429990Y-77035212D01*
X114429987Y-77035209D01*
X114314893Y-76949049D01*
X114314886Y-76949045D01*
X114180179Y-76898803D01*
X114180172Y-76898801D01*
X114120644Y-76892400D01*
X112822800Y-76892400D01*
X112822800Y-78173335D01*
X112794484Y-78161607D01*
X112647653Y-78132400D01*
X112497947Y-78132400D01*
X112351116Y-78161607D01*
X112322800Y-78173335D01*
X112322800Y-76892400D01*
X111024955Y-76892400D01*
X110965427Y-76898801D01*
X110965420Y-76898803D01*
X110830713Y-76949045D01*
X110830706Y-76949049D01*
X110715612Y-77035209D01*
X110715609Y-77035212D01*
X110629449Y-77150306D01*
X110629445Y-77150313D01*
X110579203Y-77285020D01*
X110579201Y-77285027D01*
X110572800Y-77344555D01*
X104526181Y-77344555D01*
X104521781Y-73071672D01*
X110572300Y-73071672D01*
X110572300Y-73333927D01*
X110598923Y-73536139D01*
X110606530Y-73593916D01*
X110674402Y-73847218D01*
X110674405Y-73847228D01*
X110774753Y-74089490D01*
X110774758Y-74089500D01*
X110905875Y-74316603D01*
X111065518Y-74524651D01*
X111065526Y-74524660D01*
X111250940Y-74710074D01*
X111250948Y-74710081D01*
X111458996Y-74869724D01*
X111686099Y-75000841D01*
X111686109Y-75000846D01*
X111928371Y-75101194D01*
X111928381Y-75101198D01*
X112181684Y-75169070D01*
X112441680Y-75203300D01*
X112441687Y-75203300D01*
X112703913Y-75203300D01*
X112703920Y-75203300D01*
X112963916Y-75169070D01*
X113217219Y-75101198D01*
X113459497Y-75000843D01*
X113686603Y-74869724D01*
X113894651Y-74710082D01*
X113894655Y-74710077D01*
X113894660Y-74710074D01*
X114080074Y-74524660D01*
X114080077Y-74524655D01*
X114080082Y-74524651D01*
X114239724Y-74316603D01*
X114370843Y-74089497D01*
X114471198Y-73847219D01*
X114539070Y-73593916D01*
X114573300Y-73333920D01*
X114573300Y-73071680D01*
X114539070Y-72811684D01*
X114471198Y-72558381D01*
X114471194Y-72558371D01*
X114370846Y-72316109D01*
X114370841Y-72316099D01*
X114239724Y-72088996D01*
X114080081Y-71880948D01*
X114080074Y-71880940D01*
X113894660Y-71695526D01*
X113894651Y-71695518D01*
X113686603Y-71535875D01*
X113459500Y-71404758D01*
X113459490Y-71404753D01*
X113217228Y-71304405D01*
X113217221Y-71304403D01*
X113217219Y-71304402D01*
X112963916Y-71236530D01*
X112906139Y-71228923D01*
X112703927Y-71202300D01*
X112703920Y-71202300D01*
X112441680Y-71202300D01*
X112441672Y-71202300D01*
X112210572Y-71232726D01*
X112181684Y-71236530D01*
X111928381Y-71304402D01*
X111928371Y-71304405D01*
X111686109Y-71404753D01*
X111686099Y-71404758D01*
X111458996Y-71535875D01*
X111250948Y-71695518D01*
X111065518Y-71880948D01*
X110905875Y-72088996D01*
X110774758Y-72316099D01*
X110774753Y-72316109D01*
X110674405Y-72558371D01*
X110674402Y-72558381D01*
X110606530Y-72811685D01*
X110572300Y-73071672D01*
X104521781Y-73071672D01*
X104516549Y-67991672D01*
X110572300Y-67991672D01*
X110572300Y-68253927D01*
X110598923Y-68456139D01*
X110606530Y-68513916D01*
X110674402Y-68767218D01*
X110674405Y-68767228D01*
X110774753Y-69009490D01*
X110774758Y-69009500D01*
X110905875Y-69236603D01*
X111065518Y-69444651D01*
X111065526Y-69444660D01*
X111250940Y-69630074D01*
X111250948Y-69630081D01*
X111458996Y-69789724D01*
X111686099Y-69920841D01*
X111686109Y-69920846D01*
X111928371Y-70021194D01*
X111928381Y-70021198D01*
X112181684Y-70089070D01*
X112441680Y-70123300D01*
X112441687Y-70123300D01*
X112703913Y-70123300D01*
X112703920Y-70123300D01*
X112963916Y-70089070D01*
X113217219Y-70021198D01*
X113459497Y-69920843D01*
X113686603Y-69789724D01*
X113894651Y-69630082D01*
X113894655Y-69630077D01*
X113894660Y-69630074D01*
X114080074Y-69444660D01*
X114080077Y-69444655D01*
X114080082Y-69444651D01*
X114239724Y-69236603D01*
X114370843Y-69009497D01*
X114471198Y-68767219D01*
X114539070Y-68513916D01*
X114573300Y-68253920D01*
X114573300Y-67991680D01*
X114539070Y-67731684D01*
X114471198Y-67478381D01*
X114471194Y-67478371D01*
X114370846Y-67236109D01*
X114370841Y-67236099D01*
X114239724Y-67008996D01*
X114080081Y-66800948D01*
X114080074Y-66800940D01*
X113894660Y-66615526D01*
X113894651Y-66615518D01*
X113686603Y-66455875D01*
X113459500Y-66324758D01*
X113459490Y-66324753D01*
X113217228Y-66224405D01*
X113217221Y-66224403D01*
X113217219Y-66224402D01*
X112963916Y-66156530D01*
X112906139Y-66148923D01*
X112703927Y-66122300D01*
X112703920Y-66122300D01*
X112441680Y-66122300D01*
X112441672Y-66122300D01*
X112210572Y-66152726D01*
X112181684Y-66156530D01*
X111928381Y-66224402D01*
X111928371Y-66224405D01*
X111686109Y-66324753D01*
X111686099Y-66324758D01*
X111458996Y-66455875D01*
X111250948Y-66615518D01*
X111065518Y-66800948D01*
X110905875Y-67008996D01*
X110774758Y-67236099D01*
X110774753Y-67236109D01*
X110674405Y-67478371D01*
X110674402Y-67478381D01*
X110606530Y-67731685D01*
X110572300Y-67991672D01*
X104516549Y-67991672D01*
X104511317Y-62911672D01*
X110572300Y-62911672D01*
X110572300Y-63173927D01*
X110598923Y-63376139D01*
X110606530Y-63433916D01*
X110674402Y-63687218D01*
X110674405Y-63687228D01*
X110774753Y-63929490D01*
X110774758Y-63929500D01*
X110905875Y-64156603D01*
X111065518Y-64364651D01*
X111065526Y-64364660D01*
X111250940Y-64550074D01*
X111250948Y-64550081D01*
X111458996Y-64709724D01*
X111686099Y-64840841D01*
X111686109Y-64840846D01*
X111928371Y-64941194D01*
X111928381Y-64941198D01*
X112181684Y-65009070D01*
X112441680Y-65043300D01*
X112441687Y-65043300D01*
X112703913Y-65043300D01*
X112703920Y-65043300D01*
X112963916Y-65009070D01*
X113217219Y-64941198D01*
X113459497Y-64840843D01*
X113686603Y-64709724D01*
X113894651Y-64550082D01*
X113894655Y-64550077D01*
X113894660Y-64550074D01*
X114080074Y-64364660D01*
X114080077Y-64364655D01*
X114080082Y-64364651D01*
X114239724Y-64156603D01*
X114370843Y-63929497D01*
X114471198Y-63687219D01*
X114539070Y-63433916D01*
X114573300Y-63173920D01*
X114573300Y-62911680D01*
X114539070Y-62651684D01*
X114471198Y-62398381D01*
X114471194Y-62398371D01*
X114370846Y-62156109D01*
X114370841Y-62156099D01*
X114239724Y-61928996D01*
X114080081Y-61720948D01*
X114080074Y-61720940D01*
X113894660Y-61535526D01*
X113894651Y-61535518D01*
X113686603Y-61375875D01*
X113459500Y-61244758D01*
X113459490Y-61244753D01*
X113217228Y-61144405D01*
X113217221Y-61144403D01*
X113217219Y-61144402D01*
X112963916Y-61076530D01*
X112906139Y-61068923D01*
X112703927Y-61042300D01*
X112703920Y-61042300D01*
X112441680Y-61042300D01*
X112441672Y-61042300D01*
X112210572Y-61072726D01*
X112181684Y-61076530D01*
X111928381Y-61144402D01*
X111928371Y-61144405D01*
X111686109Y-61244753D01*
X111686099Y-61244758D01*
X111458996Y-61375875D01*
X111250948Y-61535518D01*
X111065518Y-61720948D01*
X110905875Y-61928996D01*
X110774758Y-62156099D01*
X110774753Y-62156109D01*
X110674405Y-62398371D01*
X110674402Y-62398381D01*
X110606530Y-62651685D01*
X110572300Y-62911672D01*
X104511317Y-62911672D01*
X104504626Y-56414955D01*
X110572800Y-56414955D01*
X110572800Y-57712800D01*
X111853736Y-57712800D01*
X111842007Y-57741116D01*
X111812800Y-57887947D01*
X111812800Y-58037653D01*
X111842007Y-58184484D01*
X111853736Y-58212800D01*
X110572800Y-58212800D01*
X110572800Y-59510644D01*
X110579201Y-59570172D01*
X110579203Y-59570179D01*
X110629445Y-59704886D01*
X110629449Y-59704893D01*
X110715609Y-59819987D01*
X110715612Y-59819990D01*
X110830706Y-59906150D01*
X110830713Y-59906154D01*
X110965420Y-59956396D01*
X110965427Y-59956398D01*
X111024955Y-59962799D01*
X111024972Y-59962800D01*
X112322800Y-59962800D01*
X112322800Y-58681864D01*
X112351116Y-58693593D01*
X112497947Y-58722800D01*
X112647653Y-58722800D01*
X112794484Y-58693593D01*
X112822800Y-58681864D01*
X112822800Y-59962800D01*
X114120628Y-59962800D01*
X114120644Y-59962799D01*
X114180172Y-59956398D01*
X114180179Y-59956396D01*
X114314886Y-59906154D01*
X114314893Y-59906150D01*
X114429987Y-59819990D01*
X114429990Y-59819987D01*
X114516150Y-59704893D01*
X114516154Y-59704886D01*
X114566396Y-59570179D01*
X114566398Y-59570172D01*
X114572799Y-59510644D01*
X114572800Y-59510627D01*
X114572800Y-58212800D01*
X113291864Y-58212800D01*
X113303593Y-58184484D01*
X113332800Y-58037653D01*
X113332800Y-57887947D01*
X113303593Y-57741116D01*
X113291864Y-57712800D01*
X114572800Y-57712800D01*
X114572800Y-56414972D01*
X114572799Y-56414955D01*
X114566398Y-56355427D01*
X114566396Y-56355420D01*
X114516154Y-56220713D01*
X114516150Y-56220706D01*
X114429990Y-56105612D01*
X114429987Y-56105609D01*
X114314893Y-56019449D01*
X114314886Y-56019445D01*
X114180179Y-55969203D01*
X114180172Y-55969201D01*
X114120644Y-55962800D01*
X112822800Y-55962800D01*
X112822800Y-57243735D01*
X112794484Y-57232007D01*
X112647653Y-57202800D01*
X112497947Y-57202800D01*
X112351116Y-57232007D01*
X112322800Y-57243735D01*
X112322800Y-55962800D01*
X111024955Y-55962800D01*
X110965427Y-55969201D01*
X110965420Y-55969203D01*
X110830713Y-56019445D01*
X110830706Y-56019449D01*
X110715612Y-56105609D01*
X110715609Y-56105612D01*
X110629449Y-56220706D01*
X110629445Y-56220713D01*
X110579203Y-56355420D01*
X110579201Y-56355427D01*
X110572800Y-56414955D01*
X104504626Y-56414955D01*
X104499309Y-51252513D01*
X109266500Y-51252513D01*
X109266500Y-51465086D01*
X109299753Y-51675039D01*
X109365444Y-51877214D01*
X109461951Y-52066620D01*
X109586890Y-52238586D01*
X109737213Y-52388909D01*
X109909179Y-52513848D01*
X109909181Y-52513849D01*
X109909184Y-52513851D01*
X110098588Y-52610357D01*
X110300757Y-52676046D01*
X110510713Y-52709300D01*
X110510714Y-52709300D01*
X110723286Y-52709300D01*
X110723287Y-52709300D01*
X110933243Y-52676046D01*
X111135412Y-52610357D01*
X111324816Y-52513851D01*
X111346789Y-52497886D01*
X111496786Y-52388909D01*
X111496788Y-52388906D01*
X111496792Y-52388904D01*
X111647104Y-52238592D01*
X111647106Y-52238588D01*
X111647109Y-52238586D01*
X111772048Y-52066620D01*
X111772047Y-52066620D01*
X111772051Y-52066616D01*
X111868557Y-51877212D01*
X111934246Y-51675043D01*
X111967500Y-51465087D01*
X111967500Y-51252513D01*
X196464700Y-51252513D01*
X196464700Y-51465086D01*
X196497953Y-51675039D01*
X196563644Y-51877214D01*
X196660151Y-52066620D01*
X196785090Y-52238586D01*
X196935413Y-52388909D01*
X197107379Y-52513848D01*
X197107381Y-52513849D01*
X197107384Y-52513851D01*
X197296788Y-52610357D01*
X197498957Y-52676046D01*
X197708913Y-52709300D01*
X197708914Y-52709300D01*
X197921486Y-52709300D01*
X197921487Y-52709300D01*
X198131443Y-52676046D01*
X198333612Y-52610357D01*
X198523016Y-52513851D01*
X198544989Y-52497886D01*
X198694986Y-52388909D01*
X198694988Y-52388906D01*
X198694992Y-52388904D01*
X198845304Y-52238592D01*
X198845306Y-52238588D01*
X198845309Y-52238586D01*
X198970248Y-52066620D01*
X198970247Y-52066620D01*
X198970251Y-52066616D01*
X199066757Y-51877212D01*
X199132446Y-51675043D01*
X199165700Y-51465087D01*
X199165700Y-51252513D01*
X199132446Y-51042557D01*
X199066757Y-50840388D01*
X198970251Y-50650984D01*
X198970249Y-50650981D01*
X198970248Y-50650979D01*
X198845309Y-50479013D01*
X198694986Y-50328690D01*
X198523020Y-50203751D01*
X198333614Y-50107244D01*
X198333613Y-50107243D01*
X198333612Y-50107243D01*
X198131443Y-50041554D01*
X198131441Y-50041553D01*
X198131440Y-50041553D01*
X197970157Y-50016008D01*
X197921487Y-50008300D01*
X197708913Y-50008300D01*
X197660242Y-50016008D01*
X197498960Y-50041553D01*
X197296785Y-50107244D01*
X197107379Y-50203751D01*
X196935413Y-50328690D01*
X196785090Y-50479013D01*
X196660151Y-50650979D01*
X196563644Y-50840385D01*
X196497953Y-51042560D01*
X196464700Y-51252513D01*
X111967500Y-51252513D01*
X111934246Y-51042557D01*
X111868557Y-50840388D01*
X111772051Y-50650984D01*
X111772049Y-50650981D01*
X111772048Y-50650979D01*
X111647109Y-50479013D01*
X111496786Y-50328690D01*
X111324820Y-50203751D01*
X111135414Y-50107244D01*
X111135413Y-50107243D01*
X111135412Y-50107243D01*
X110933243Y-50041554D01*
X110933241Y-50041553D01*
X110933240Y-50041553D01*
X110771957Y-50016008D01*
X110723287Y-50008300D01*
X110510713Y-50008300D01*
X110462042Y-50016008D01*
X110300760Y-50041553D01*
X110098585Y-50107244D01*
X109909179Y-50203751D01*
X109737213Y-50328690D01*
X109586890Y-50479013D01*
X109461951Y-50650979D01*
X109365444Y-50840385D01*
X109299753Y-51042560D01*
X109266500Y-51252513D01*
X104499309Y-51252513D01*
X104495727Y-47774334D01*
X104515343Y-47707277D01*
X104568099Y-47661468D01*
X104619535Y-47650209D01*
X203279072Y-47498191D01*
X203346142Y-47517772D01*
G37*
%TD.AperFunction*%
%TD*%
M02*
